<?xml version="1.0" standalone="no"?>
<!DOCTYPE svg PUBLIC "-//W3C//DTD SVG 20010904//EN"
 "http://www.w3.org/TR/2001/REC-SVG-20010904/DTD/svg10.dtd">
<svg version="1.0" xmlns="http://www.w3.org/2000/svg"
 width="150.000000pt" height="150.000000pt" viewBox="0 0 150.000000 150.000000"
 preserveAspectRatio="xMidYMid meet">

<g transform="translate(0.000000,150.000000) scale(0.100000,-0.100000)"
fill="#000000" stroke="none">
<path d="M729 1408 c-22 -36 -21 -80 2 -135 17 -41 10 -47 -29 -27 -18 8 -44
14 -59 12 -25 -3 -28 -7 -26 -37 2 -45 30 -82 81 -106 30 -15 41 -26 42 -42 0
-27 -2 -28 -41 -7 -17 8 -42 14 -57 12 -24 -3 -27 -7 -25 -37 2 -45 30 -82 81
-106 37 -18 41 -24 42 -57 0 -36 0 -37 -47 -43 -27 -3 -80 -17 -120 -31 -39
-13 -78 -21 -87 -18 -9 3 -40 9 -69 13 l-52 6 -3 40 c-2 38 0 41 40 60 51 24
77 58 80 105 3 32 0 35 -25 38 -15 2 -41 -4 -59 -12 -39 -20 -38 -20 -38 7 0
17 11 28 42 42 51 24 77 58 80 105 3 32 0 35 -25 38 -15 2 -41 -4 -59 -12 -17
-9 -33 -16 -35 -16 -8 0 -1 41 12 66 20 39 19 73 -5 112 -27 44 -50 38 -74
-20 -19 -46 -19 -46 3 -90 33 -68 28 -80 -19 -53 -14 8 -40 14 -57 15 -31 0
-33 -2 -33 -34 0 -48 38 -98 88 -116 33 -11 42 -19 42 -37 0 -27 -6 -28 -40
-8 -14 8 -40 14 -57 15 -31 0 -33 -2 -33 -34 0 -48 38 -98 88 -116 40 -14 42
-16 42 -56 0 -39 -2 -41 -40 -53 -22 -6 -40 -16 -40 -21 0 -6 197 -10 526 -10
320 0 523 4 519 9 -3 5 -21 15 -40 21 -33 11 -35 14 -35 53 1 39 3 43 42 62
51 24 77 58 80 105 3 32 0 35 -25 38 -15 2 -41 -4 -59 -12 -39 -20 -38 -20
-38 7 0 17 11 28 42 42 51 24 77 58 80 105 3 32 0 35 -25 38 -15 2 -41 -4 -59
-12 -17 -9 -33 -16 -35 -16 -8 0 -1 41 12 66 20 39 19 73 -5 112 -27 44 -50
38 -74 -20 -19 -46 -19 -46 3 -90 33 -68 28 -80 -19 -53 -14 8 -40 14 -57 15
-31 0 -33 -2 -33 -32 0 -45 31 -91 73 -111 19 -9 40 -17 46 -17 6 0 11 -11 11
-25 0 -29 -5 -30 -40 -10 -14 8 -40 14 -57 15 -31 0 -33 -2 -33 -34 0 -49 38
-98 88 -116 42 -14 43 -16 40 -55 l-3 -40 -64 -7 c-35 -4 -71 -10 -79 -13 -8
-3 -42 6 -76 19 -33 13 -85 27 -113 31 l-53 7 0 37 c0 34 3 38 42 51 50 18 78
53 85 108 5 40 4 42 -21 42 -15 0 -43 -7 -63 -15 -45 -19 -43 -19 -43 8 0 18
9 26 42 37 50 18 78 53 85 108 l6 42 -34 0 c-19 -1 -45 -7 -59 -15 -14 -8 -28
-14 -32 -15 -13 0 -8 34 7 54 22 29 19 98 -6 130 -27 34 -35 33 -60 -6z"/>
<path d="M67 713 c-11 -10 -8 -62 3 -84 7 -12 21 -19 39 -19 43 0 112 -41 132
-80 27 -50 25 -119 -6 -164 -37 -55 -33 -74 33 -139 65 -64 84 -69 138 -32 45
31 114 33 164 6 39 -20 80 -89 80 -132 0 -39 24 -49 114 -49 86 0 116 18 116
68 0 105 148 171 242 107 20 -14 45 -25 55 -25 10 0 47 29 83 65 70 71 69 61
20 145 -52 90 7 208 112 225 58 10 68 20 68 71 l0 44 -179 0 -179 0 -7 -46
c-28 -187 -213 -321 -393 -283 -76 15 -125 41 -177 94 -50 50 -80 104 -90 160
-14 82 3 75 -189 75 -95 0 -176 -3 -179 -7z"/>
<path d="M510 650 c-39 -25 11 -30 256 -28 213 3 249 5 249 18 0 13 -35 15
-245 17 -143 2 -251 -1 -260 -7z"/>
<path d="M557 563 c-4 -3 -2 -12 4 -20 9 -10 54 -13 194 -13 191 0 215 3 215
26 0 12 -36 14 -203 14 -112 0 -207 -3 -210 -7z"/>
<path d="M715 480 c-12 -19 6 -30 51 -30 37 0 44 3 44 20 0 17 -7 20 -44 20
-25 0 -48 -4 -51 -10z"/>
</g>
</svg>
