<?xml version="1.0" encoding="UTF-8"?>
<svg version="1.1" xmlns="http://www.w3.org/2000/svg" width="150" height="150">
<path d="M0 0 C1.51289503 0.00031716 3.0258126 0.01164445 4.53857422 0.03173828 C5.33480194 0.03456818 6.13102966 0.03739807 6.9513855 0.04031372 C9.49882935 0.05152438 12.04592383 0.07663016 14.59326172 0.10205078 C16.31851706 0.11207945 18.04377791 0.1212055 19.76904297 0.12939453 C24.00225086 0.15146656 28.23519702 0.18600212 32.46826172 0.22705078 C34.36962891 6.88037109 34.36962891 6.88037109 35.25732422 10.00048828 C38.2222669 19.22783327 43.01045599 25.73187083 51.71826172 30.22705078 C59.98920536 34.020095 68.36790829 34.51278247 77.09326172 31.72705078 C85.62340931 28.24187619 91.74489368 22.48640533 95.45019531 14.03125 C96.49658919 11.14902457 97.08878062 8.42351919 97.59716797 5.40283203 C97.76418213 4.42870361 97.93119629 3.4545752 98.10327148 2.45092773 C98.22371826 1.71704834 98.34416504 0.98316895 98.46826172 0.22705078 C103.70099503 0.17769254 108.93359348 0.14135129 114.16650391 0.1171875 C115.94745239 0.10711647 117.72838429 0.09345893 119.50927734 0.07617188 C122.06595955 0.05197165 124.62242357 0.04057894 127.17919922 0.03173828 C128.37771011 0.01625443 128.37771011 0.01625443 129.60043335 0.00045776 C131.55783391 0.00005852 133.51469248 0.1046401 135.46826172 0.22705078 C138.04275753 2.80154659 137.74463782 4.64042225 137.83154297 8.15673828 C137.34255976 10.94341676 136.46083763 12.22164713 134.46826172 14.22705078 C131.90966797 15.09814453 131.90966797 15.09814453 129.03076172 15.66455078 C125.1768562 16.59111723 123.74497617 16.95692477 120.84326172 19.78955078 C118.09498054 24.66150379 117.80575636 28.65168102 118.46826172 34.22705078 C120.3911969 37.44534182 120.3911969 37.44534182 122.46826172 40.22705078 C122.94091797 43.00048828 122.94091797 43.00048828 122.46826172 46.22705078 C120.66799456 48.65696803 119.04875024 50.53313457 116.90576172 52.60205078 C116.39207031 53.14732422 115.87837891 53.69259766 115.34912109 54.25439453 C112.38931609 57.1884621 111.01174768 58.15747545 106.74560547 58.70361328 C103.46826172 58.22705078 103.46826172 58.22705078 100.59326172 56.22705078 C96.44292232 53.57083357 93.27257861 53.39189175 88.46826172 54.22705078 C84.3090384 56.15261713 82.83122125 57.5270574 80.71826172 61.60205078 C79.92575187 63.90032935 79.17085538 66.21220929 78.46826172 68.53955078 C77.46826172 71.22705078 77.46826172 71.22705078 74.46826172 73.22705078 C71.61203098 73.44897789 68.88531481 73.55153463 66.03076172 73.53955078 C65.26699219 73.55566406 64.50322266 73.57177734 63.71630859 73.58837891 C60.34440478 73.59131355 58.03925683 73.51480345 54.99560547 71.98095703 C53.17288851 69.88786262 52.84109159 68.58302961 52.46826172 65.85205078 C51.69523234 61.6817607 50.58277748 59.24996314 47.46826172 56.22705078 C43.22971461 53.69284577 39.29216565 53.64233515 34.46826172 54.22705078 C32.04956593 55.38600918 30.34504076 56.35027174 28.46826172 58.22705078 C25.24434144 58.64548296 22.64745253 58.93239602 19.76953125 57.2109375 C18.07858079 55.77950203 16.55640108 54.2705877 15.03076172 52.66455078 C14.49 52.15085938 13.94923828 51.63716797 13.39208984 51.10791016 C10.44343229 48.10706397 9.52935456 46.75670394 9.03076172 42.43408203 C9.49875068 39.00355583 9.86858384 38.30679308 12.46826172 36.22705078 C14.26310713 30.84251454 14.30133725 26.02649392 11.90576172 20.85205078 C8.24287527 16.90740384 4.1823536 15.77685384 -0.84423828 14.16455078 C-3.53173828 13.22705078 -3.53173828 13.22705078 -5.53173828 11.22705078 C-5.79736328 9.13330078 -5.79736328 9.13330078 -5.78173828 6.72705078 C-5.78689453 5.93298828 -5.79205078 5.13892578 -5.79736328 4.32080078 C-5.30039579 0.40352759 -3.73068068 0.23984052 0 0 Z " fill="#DD0000" transform="translate(10.53173828125,75.77294921875)"/>
<path d="M0 0 C3.05665662 0.90873575 4.72305703 1.67530825 6.8125 4.125 C8.86238754 9.08788563 8.4213246 13.85342946 7 19 C7.62648438 18.90460937 8.25296875 18.80921875 8.8984375 18.7109375 C10.12433594 18.54464844 10.12433594 18.54464844 11.375 18.375 C12.18710938 18.25898438 12.99921875 18.14296875 13.8359375 18.0234375 C14.55007812 18.01570313 15.26421875 18.00796875 16 18 C16.99 18.99 16.99 18.99 18 20 C17.77123948 26.86281567 15.94662299 31.05337701 11 36 C12.175625 35.938125 12.175625 35.938125 13.375 35.875 C16 36 16 36 18 38 C18.35239696 42.51790972 17.61331097 46.77738138 14.875 50.4375 C11.46690111 53.47515336 9.40719793 54.13584354 5 55 C5 56.98 5 58.96 5 61 C5.9075 60.9175 6.815 60.835 7.75 60.75 C11.37589867 60.71388547 14.0267139 61.72041838 17.375 63.0625 C25.25496987 65.91974098 32.83246357 64.89030018 41 64 C41 62.02 41 60.04 41 58 C40.278125 57.896875 39.55625 57.79375 38.8125 57.6875 C34.32302682 56.59007322 31.79697124 55.18171598 29.1875 51.3125 C27.71387621 47.20186523 27.70547185 44.34429026 28 40 C28.33 39.67 28.66 39.34 29 39 C30.5044015 39.08968547 32.00515482 39.24591383 33.5 39.4375 C34.3146875 39.53933594 35.129375 39.64117187 35.96875 39.74609375 C36.6390625 39.82988281 37.309375 39.91367187 38 40 C38.33 40 38.66 40 39 40 C37.63875 39.38125 37.63875 39.38125 36.25 38.75 C32.01391659 36.46903201 29.53665868 34.60997605 28 30 C27.82187376 27.3071504 27.91272302 24.70558632 28 22 C28.495 21.505 28.495 21.505 29 21 C30.99609375 21.0859375 30.99609375 21.0859375 33.4375 21.375 C34.24058594 21.46523438 35.04367188 21.55546875 35.87109375 21.6484375 C38 22 38 22 40 23 C39.484375 22.175 38.96875 21.35 38.4375 20.5 C36.6769365 16.21341062 36.67307647 13.39979909 38 9 C39.16723569 6.77848691 40.4528165 4.9963658 42 3 C44.25 3 44.25 3 47 4 C49.93577024 7.73809254 51.03292301 11.01230977 50.875 15.75 C50.15081764 18.43982019 49.42621259 20.62297901 48 23 C48.70125 22.67 49.4025 22.34 50.125 22 C53.28057113 20.90241004 55.68225608 20.77379019 59 21 C60 22 60 22 60.25 25.75 C60.18735613 29.64784074 59.49775914 31.89933348 57 35 C53.78071602 38.04984798 51.42350331 39.49445676 47 40 C50.40851171 40 53.66390714 39.56346848 57.0390625 39.12109375 C58.00972656 39.06115234 58.00972656 39.06115234 59 39 C60 40 60 40 60.25 43.75 C60.18735613 47.64784074 59.49775914 49.89933348 57 53 C53.78071602 56.04984798 51.42350331 57.49445676 47 58 C47 60.31 47 62.62 47 65 C47.9075 65.0825 48.815 65.165 49.75 65.25 C53.40077839 66.09248732 54.63384583 67.17881618 57 70 C56 71 56 71 54.1590414 71.12304783 C52.94365736 71.12166514 52.94365736 71.12166514 51.70372009 71.12025452 C50.77678848 71.12162918 49.84985687 71.12300385 48.89483643 71.12442017 C47.86985046 71.12082489 46.8448645 71.11722961 45.78881836 71.11352539 C44.17926018 71.11374443 44.17926018 71.11374443 42.53718567 71.1139679 C38.97138484 71.11326824 35.40563551 71.10547338 31.83984375 71.09765625 C29.37504607 71.09579226 26.91024801 71.09436827 24.44544983 71.09336853 C17.94346095 71.08954187 11.44149425 71.07971032 4.93951416 71.06866455 C-1.68940817 71.05791748 -8.31833693 71.05387159 -14.94726562 71.04882812 C-27.96485324 71.03808819 -40.98242544 71.02120097 -54 71 C-53.64453125 69.078125 -53.64453125 69.078125 -53 67 C-49.70173093 65.21715186 -47.8225249 65 -44 65 C-44 62.69 -44 60.38 -44 58 C-44.721875 57.896875 -45.44375 57.79375 -46.1875 57.6875 C-50.67697318 56.59007322 -53.20302876 55.18171598 -55.8125 51.3125 C-57.28612379 47.20186523 -57.29452815 44.34429026 -57 40 C-56.505 39.505 -56.505 39.505 -56 39 C-54.4955985 39.08968547 -52.99484518 39.24591383 -51.5 39.4375 C-50.6853125 39.53933594 -49.870625 39.64117187 -49.03125 39.74609375 C-48.3609375 39.82988281 -47.690625 39.91367187 -47 40 C-46.67 40 -46.34 40 -46 40 C-46.81404297 39.67128906 -46.81404297 39.67128906 -47.64453125 39.3359375 C-51.32650675 37.70392674 -53.59213676 36.56081196 -56 33.25 C-57.24120132 29.21609572 -57.28525336 26.20748701 -57 22 C-56.67 21.67 -56.34 21.34 -56 21 C-54.00390625 21.0859375 -54.00390625 21.0859375 -51.5625 21.375 C-50.75941406 21.46523438 -49.95632812 21.55546875 -49.12890625 21.6484375 C-47 22 -47 22 -45 23 C-45.515625 22.175 -46.03125 21.35 -46.5625 20.5 C-48.3230635 16.21341062 -48.32692353 13.39979909 -47 9 C-45.83276431 6.77848691 -44.5471835 4.9963658 -43 3 C-40.6875 3.1875 -40.6875 3.1875 -38 4 C-34.96235458 7.68856944 -34.16297226 11.27380459 -34 16 C-34.77309991 18.52611628 -35.79110153 20.630559 -37 23 C-36.29875 22.67 -35.5975 22.34 -34.875 22 C-31.71942887 20.90241004 -29.31774392 20.77379019 -26 21 C-25 22 -25 22 -24.6875 25.6875 C-24.74314987 30.12358984 -26.12881485 32.57052885 -29 36 C-31.84761458 38.66389751 -34.15525998 39.46600833 -38 40 C-34.59148829 40 -31.33609286 39.56346848 -27.9609375 39.12109375 C-26.99027344 39.06115234 -26.99027344 39.06115234 -26 39 C-25 40 -25 40 -24.6875 43.6875 C-24.74314987 48.12358984 -26.12881485 50.57052885 -29 54 C-31.84761458 56.66389751 -34.15525998 57.46600833 -38 58 C-38 59.98 -38 61.96 -38 64 C-28.63043692 65.19225422 -21.90016592 65.15973553 -12.8984375 61.92578125 C-9.06069946 60.69998082 -5.98796929 60.68721809 -2 61 C-2 59.02 -2 57.04 -2 55 C-3.051875 54.79375 -4.10375 54.5875 -5.1875 54.375 C-9.68271216 53.10758724 -11.37530099 50.78265445 -14 47 C-15.1577506 43.52674819 -15.06866652 40.63932552 -15 37 C-10.28400182 36.07529447 -7.32734391 35.77076223 -3 38 C-4.147331 36.73300931 -4.147331 36.73300931 -6.8125 35.75 C-10.40635556 33.77690283 -11.95791763 32.55473597 -14 29 C-14.66220727 25.67344316 -15.03142444 22.39383925 -15 19 C-14.505 18.505 -14.505 18.505 -14 18 C-12.5163893 18.09000378 -11.03651093 18.24646818 -9.5625 18.4375 C-6.290108 18.85914317 -6.290108 18.85914317 -3 19 C-3.66 18.01 -4.32 17.02 -5 16 C-5.74361612 11.46048297 -5.65495843 7.3934012 -3.0625 3.5 C-1 1 -1 1 0 0 Z " fill="#DE0000" transform="translate(75,4)"/>
<path d="M0 0 C1.40897804 0.00333092 1.40897804 0.00333092 2.84642029 0.00672913 C3.90744461 0.00680466 4.96846893 0.00688019 6.06164551 0.00695801 C7.21579453 0.01211929 8.36994354 0.01728058 9.55906677 0.02259827 C10.73404221 0.02401321 11.90901764 0.02542816 13.11959839 0.02688599 C16.88981116 0.0325046 20.65996556 0.04506026 24.43016052 0.05775452 C26.97898779 0.06276712 29.52781599 0.06733044 32.0766449 0.07142639 C38.34033685 0.08248007 44.60399452 0.0992363 50.86766052 0.12025452 C51.24984819 1.77640109 51.58161154 3.44482476 51.86766052 5.12025452 C50.86766052 6.12025452 50.86766052 6.12025452 48.73532104 6.24050903 C47.79600235 6.23828842 46.85668365 6.23606781 45.88890076 6.23377991 C44.82787643 6.23370438 43.76685211 6.23362885 42.67367554 6.23355103 C40.94245201 6.2258091 40.94245201 6.2258091 39.17625427 6.21791077 C38.00127884 6.21649582 36.82630341 6.21508087 35.61572266 6.21362305 C31.84550988 6.20800444 28.07535549 6.19544878 24.30516052 6.18275452 C21.75633325 6.17774191 19.20750506 6.17317859 16.65867615 6.16908264 C10.3949842 6.15802896 4.13132653 6.14127273 -2.13233948 6.12025452 C-2.51452715 4.46410794 -2.84629049 2.79568427 -3.13233948 1.12025452 C-2.13233948 0.12025452 -2.13233948 0.12025452 0 0 Z " fill="#E00000" transform="translate(52.13233947753906,82.87974548339844)"/>
<path d="M0 0 C0.9024646 -0.0033284 1.8049292 -0.0066568 2.73474121 -0.01008606 C4.64460744 -0.01515319 6.55448253 -0.01749445 8.46435547 -0.01733398 C11.39435301 -0.01952236 14.32397528 -0.03768543 17.25390625 -0.05664062 C19.10676954 -0.05957414 20.95963463 -0.06155922 22.8125 -0.0625 C24.13284241 -0.07327827 24.13284241 -0.07327827 25.4798584 -0.08427429 C31.67742452 -0.06085673 31.67742452 -0.06085673 33.90625 2.16796875 C33.65625 4.23046875 33.65625 4.23046875 32.90625 6.16796875 C29.60125547 7.82046601 25.91837857 7.3310858 22.28515625 7.3359375 C21.42945541 7.3392659 20.57375458 7.3425943 19.69212341 7.34602356 C17.88061054 7.35109066 16.06908831 7.35343195 14.25756836 7.35327148 C11.48340503 7.3554572 8.70963976 7.37361292 5.93554688 7.39257812 C4.1770847 7.39551222 2.41862062 7.39749691 0.66015625 7.3984375 C-0.58682289 7.40921577 -0.58682289 7.40921577 -1.85899353 7.42021179 C-5.78530294 7.40460738 -7.75296631 7.39515788 -11.09375 5.16796875 C-11.09375 3.84796875 -11.09375 2.52796875 -11.09375 1.16796875 C-7.67476325 -0.54152463 -3.76213387 0.00475626 0 0 Z " fill="#E20000" transform="translate(65.09375,90.83203125)"/>
<path d="M0 0 C3.96 0 7.92 0 12 0 C12.33 1.65 12.66 3.3 13 5 C12 6 12 6 9.53125 6.1328125 C8.03078125 6.12894531 8.03078125 6.12894531 6.5 6.125 C5.4996875 6.12757812 4.499375 6.13015625 3.46875 6.1328125 C1 6 1 6 0 5 C0 3.35 0 1.7 0 0 Z " fill="#E00000" transform="translate(70,100)"/>
</svg>
