<?xml version="1.0" standalone="no"?>
<!DOCTYPE svg PUBLIC "-//W3C//DTD SVG 20010904//EN"
 "http://www.w3.org/TR/2001/REC-SVG-20010904/DTD/svg10.dtd">
<svg version="1.0" xmlns="http://www.w3.org/2000/svg"
 width="150.000000pt" height="150.000000pt" viewBox="0 0 150.000000 150.000000"
 preserveAspectRatio="xMidYMid meet">

<g transform="translate(0.000000,150.000000) scale(0.100000,-0.100000)"
fill="#000000" stroke="none">
<path d="M864 1323 c10 -85 47 -154 117 -217 l60 -54 -51 -48 c-32 -30 -63
-73 -87 -120 -32 -66 -36 -81 -36 -154 0 -73 4 -88 36 -154 24 -47 55 -90 87
-120 l51 -48 -60 -54 c-70 -63 -107 -132 -117 -216 l-6 -58 51 0 51 0 0 46 c0
25 7 61 16 80 19 40 91 108 138 131 33 15 36 15 79 -10 84 -49 137 -129 137
-207 l0 -40 46 0 47 0 -5 63 c-3 35 -13 78 -23 97 -26 53 -81 116 -120 140
l-35 22 59 57 c33 33 71 83 87 117 26 52 29 70 29 154 0 84 -3 102 -29 154
-16 34 -54 84 -87 117 l-59 57 35 22 c39 24 94 87 120 140 10 19 20 62 23 97
l5 63 -47 0 -46 0 0 -40 c0 -78 -53 -158 -137 -207 -43 -25 -46 -25 -78 -10
-49 23 -113 84 -136 128 -10 21 -19 59 -19 84 l0 45 -51 0 -51 0 6 -57z m347
-365 c29 -24 66 -68 83 -98 27 -48 31 -64 31 -130 -1 -105 -42 -181 -135 -245
l-41 -29 -35 19 c-46 25 -111 96 -135 148 -25 56 -25 158 0 212 31 69 129 165
167 165 7 0 37 -19 65 -42z"/>
<path d="M1080 890 c-28 -27 -50 -54 -50 -60 0 -6 40 -10 110 -10 73 0 110 4
110 11 0 24 -87 109 -112 109 -5 0 -31 -22 -58 -50z"/>
<path d="M1008 755 c-3 -14 -3 -36 0 -50 l4 -26 132 3 131 3 0 45 0 45 -131 3
-132 3 -4 -26z"/>
<path d="M1030 633 c0 -13 51 -72 80 -93 30 -21 32 -21 57 -4 36 23 83 75 83
91 0 10 -27 13 -110 13 -60 0 -110 -3 -110 -7z"/>
<path d="M1007 1360 c5 -19 14 -20 139 -20 127 0 134 1 134 20 0 19 -7 20
-139 20 -134 0 -139 -1 -134 -20z"/>
<path d="M1047 1259 c16 -27 53 -60 90 -82 13 -8 72 40 104 84 l20 29 -116 0
-116 0 18 -31z"/>
<path d="M500 1221 c-5 -11 -10 -38 -10 -60 0 -56 -30 -65 -74 -22 -18 17 -41
31 -52 31 -25 0 -174 -149 -174 -175 0 -10 14 -33 31 -51 43 -44 34 -74 -22
-74 -76 0 -79 -5 -79 -140 0 -135 3 -140 79 -140 56 0 65 -30 22 -74 -17 -18
-31 -41 -31 -52 0 -25 149 -174 175 -174 10 0 33 14 51 31 44 43 74 34 74 -22
0 -76 5 -79 140 -79 135 0 140 3 140 79 0 53 29 65 68 27 l27 -25 48 55 49 54
-31 36 c-18 19 -45 60 -62 90 l-31 54 -52 0 c-48 0 -55 -3 -96 -45 -40 -41
-48 -45 -93 -45 -38 0 -56 -6 -79 -25 -36 -30 -71 -32 -98 -5 -41 41 -12 120
44 120 14 0 38 -11 54 -25 49 -41 88 -34 147 25 48 48 51 50 106 50 l56 0 -6
33 -7 32 -133 3 c-129 3 -133 2 -162 -23 -37 -30 -72 -32 -99 -5 -41 41 -12
120 44 120 14 0 38 -11 55 -25 29 -25 33 -26 162 -23 l133 3 7 33 6 32 -56 0
c-55 0 -58 2 -106 50 -59 59 -98 66 -147 25 -36 -30 -71 -32 -98 -5 -41 41
-12 120 44 120 14 0 38 -11 54 -25 23 -19 41 -25 79 -25 45 0 53 -4 93 -45 41
-42 48 -45 96 -45 l52 0 31 54 c17 30 44 71 62 90 l31 36 -49 54 -48 55 -27
-25 c-39 -38 -68 -26 -68 27 0 76 -5 79 -140 79 -108 0 -120 -2 -130 -19z"/>
<path d="M1104 260 c-21 -15 -47 -42 -57 -59 l-18 -31 117 0 c130 0 126 -4 60
68 -49 53 -58 55 -102 22z"/>
<path d="M1007 100 c-5 -19 0 -20 134 -20 132 0 139 1 139 20 0 19 -7 20 -134
20 -125 0 -134 -1 -139 -20z"/>
</g>
</svg>
