<?xml version="1.0" standalone="no"?>
<!DOCTYPE svg PUBLIC "-//W3C//DTD SVG 20010904//EN"
 "http://www.w3.org/TR/2001/REC-SVG-20010904/DTD/svg10.dtd">
<svg version="1.0" xmlns="http://www.w3.org/2000/svg"
 width="150.000000pt" height="150.000000pt" viewBox="0 0 150.000000 150.000000"
 preserveAspectRatio="xMidYMid meet">

<g transform="translate(0.000000,150.000000) scale(0.100000,-0.100000)"
fill="#000000" stroke="none">
<path d="M544 1476 c-3 -7 -4 -40 -2 -72 2 -47 7 -59 21 -62 15 -3 17 6 17 72
0 62 -3 76 -15 76 -9 0 -18 -6 -21 -14z"/>
<path d="M164 1366 c-6 -16 75 -136 92 -136 26 0 20 30 -18 89 -40 59 -63 75
-74 47z"/>
<path d="M891 1323 c-41 -58 -48 -88 -21 -88 18 0 90 102 90 127 0 34 -28 18
-69 -39z"/>
<path d="M453 1224 c-60 -22 -137 -95 -169 -160 -22 -45 -27 -70 -27 -128 0
-84 15 -124 80 -212 l47 -64 180 0 181 1 48 66 c58 82 81 155 74 235 -10 109
-70 198 -170 250 -55 28 -183 35 -244 12z m143 -208 l-7 -54 40 -7 c23 -4 41
-11 41 -17 0 -15 -134 -177 -147 -178 -8 0 -8 14 2 55 7 30 10 57 7 60 -3 3
-20 5 -38 5 -18 0 -35 4 -38 9 -6 10 124 180 138 181 4 0 5 -24 2 -54z"/>
<path d="M15 980 c-14 -22 12 -31 81 -28 53 2 69 6 69 18 0 12 -16 16 -72 18
-45 2 -74 -1 -78 -8z"/>
<path d="M962 973 c3 -15 16 -19 76 -21 67 -3 72 -1 72 18 0 18 -6 20 -76 20
-66 0 -75 -2 -72 -17z"/>
<path d="M1470 953 c0 -33 -59 -76 -203 -146 -83 -41 -175 -92 -204 -115 -68
-55 -113 -143 -120 -239 l-5 -68 37 73 c22 44 60 96 98 135 68 68 206 161 233
155 38 -7 22 -29 -58 -81 -91 -59 -179 -146 -221 -218 -15 -25 -44 -93 -66
-152 -63 -169 -116 -230 -212 -243 -91 -13 -148 39 -164 149 -6 38 -11 47 -28
47 -18 0 -19 -5 -14 -55 7 -68 41 -132 86 -162 26 -18 48 -23 94 -23 111 0
180 52 243 183 18 38 41 75 51 83 10 7 75 32 145 55 139 45 202 79 242 132 33
43 62 122 75 208 14 80 14 259 1 279 -6 9 -10 10 -10 3z"/>
<path d="M408 498 c4 -129 11 -146 75 -177 54 -26 107 -27 156 -1 57 29 71 47
71 90 l0 39 -72 3 c-65 3 -73 5 -73 23 0 18 8 20 73 23 60 2 72 6 72 20 0 9 3
34 6 55 l7 37 -159 0 -159 0 3 -112z"/>
</g>
</svg>
