<?xml version="1.0" encoding="UTF-8"?>
<svg version="1.1" xmlns="http://www.w3.org/2000/svg" width="162" height="141">
<path d="M0 0 C1.28611176 -0.01489471 1.28611176 -0.01489471 2.59820557 -0.03009033 C5.43228375 -0.0592794 8.26613805 -0.07292809 11.1003418 -0.08398438 C13.07325749 -0.09549179 15.04617314 -0.1070072 17.01908875 -0.11853027 C21.15580282 -0.13953482 25.29243933 -0.15123019 29.42919922 -0.15820312 C34.72222115 -0.16916975 40.01421332 -0.21722233 45.30691242 -0.27414703 C49.3827969 -0.31145083 53.45843457 -0.3218136 57.53447533 -0.32487488 C59.48529884 -0.33091766 61.43611854 -0.34694052 63.38677406 -0.37324524 C66.12061852 -0.40747973 68.85196383 -0.40358313 71.5859375 -0.390625 C72.38670212 -0.40905457 73.18746674 -0.42748413 74.01249695 -0.44647217 C79.41962679 -0.36645871 82.20949744 1.07950154 86.1710844 4.74185944 C88.4609492 7.49184583 88.62194045 10.17855783 88.69238281 13.61010742 C88.72230064 14.90110603 88.72230064 14.90110603 88.75282288 16.21818542 C88.76953537 17.14327408 88.78624786 18.06836273 88.8034668 19.02148438 C88.83463844 20.44676201 88.83463844 20.44676201 88.86643982 21.90083313 C88.93184107 24.93707019 88.99077658 27.97339394 89.04956055 31.00976562 C89.09275472 33.06771731 89.1363693 35.12566022 89.18041992 37.18359375 C89.28751286 42.22972878 89.388807 47.27595105 89.48706055 52.32226562 C90.27040771 52.14574463 91.05375488 51.96922363 91.86083984 51.78735352 C95.85450825 51.08009886 97.90767989 52.56766726 101.48706055 54.32226562 C101.40139658 57.23484063 100.90795099 58.89024586 98.86206055 60.99023438 C97.1031468 62.48318335 95.32393036 63.92662825 93.48706055 65.32226562 C94.26049805 65.34804687 95.03393555 65.37382813 95.83081055 65.40039062 C105.00324287 65.89987951 110.95311872 67.31234066 117.29956055 74.13476562 C123.03488625 81.2549308 124.65095847 88.29763617 124.48706055 97.32226562 C122.95153745 111.04600334 119.25774123 124.10235825 109.48706055 134.32226562 C109.01714188 134.81487885 108.54722321 135.30749207 108.06306458 135.81503296 C103.42679595 140.26113222 100.10384343 141.21901365 93.7722168 141.11914062 C92.95764511 141.12488098 92.14307343 141.13062134 91.30381775 141.13653564 C89.590212 141.14059751 87.87651148 141.12967301 86.16308594 141.10449219 C83.55865275 141.07237774 80.96044181 141.10421175 78.35620117 141.14257812 C63.3922795 141.18071239 63.3922795 141.18071239 57.76220703 135.99902344 C56.39154852 134.19667179 55.47404361 132.3547834 54.48706055 130.32226562 C53.71111542 130.33114807 52.93517029 130.34003052 52.13571167 130.34918213 C44.80897605 130.42946227 37.48245489 130.49029768 30.1553936 130.52951431 C26.38880464 130.55035417 22.62258031 130.5786047 18.85620117 130.62402344 C15.21869468 130.66761161 11.58153802 130.69142981 7.94379044 130.7017746 C6.55873231 130.70914288 5.17369247 130.72353167 3.78878403 130.74518585 C-8.41749045 130.92838191 -8.41749045 130.92838191 -12.28588867 128.54785156 C-15.74791896 125.08809843 -16.76070717 122.41701128 -16.78036499 117.55374146 C-16.78889496 116.5977002 -16.79742493 115.64165894 -16.80621338 114.65664673 C-16.80530701 113.61446991 -16.80440063 112.57229309 -16.8034668 111.49853516 C-16.81018402 110.39568176 -16.81690125 109.29282837 -16.82382202 108.15655518 C-16.84284036 104.50601716 -16.84672815 100.85566262 -16.84887695 97.20507812 C-16.85530208 94.66925989 -16.86203022 92.1334424 -16.86904907 89.59762573 C-16.88103136 84.27974428 -16.8848145 78.96193131 -16.88354492 73.64404297 C-16.88234375 67.5045856 -16.90344214 61.36547992 -16.93503225 55.22611153 C-16.96437368 49.31223907 -16.97152002 43.39847367 -16.97032547 37.48452377 C-16.97268653 34.97190794 -16.98153834 32.45928955 -16.9969902 29.94672012 C-17.01657886 26.4324447 -17.0108393 22.91907507 -16.9987793 19.40478516 C-17.01001831 18.3666568 -17.02125732 17.32852844 -17.03283691 16.25894165 C-16.98239609 10.47659458 -16.58829495 6.78816225 -12.51293945 2.32226562 C-8.90523737 -0.52295704 -4.39698891 0.0121839 0 0 Z M-4.44876099 11.16381836 C-5.92610373 14.16027666 -5.90172486 16.58282571 -5.91137695 19.91601562 C-5.91524414 21.19347656 -5.91911133 22.4709375 -5.9230957 23.78710938 C-5.91681152 24.44952637 -5.91052734 25.11194336 -5.90405273 25.79443359 C-5.88798831 27.81611652 -5.9039171 29.83580075 -5.9230957 31.85742188 C-5.91922852 33.13488281 -5.91536133 34.41234375 -5.91137695 35.72851562 C-5.90799316 36.89705078 -5.90460937 38.06558594 -5.90112305 39.26953125 C-5.46338769 42.71194817 -4.94624959 43.89381529 -2.51293945 46.32226562 C0.20496836 46.90297887 0.20496836 46.90297887 3.33544922 46.77636719 C4.53646774 46.77606506 5.73748627 46.77576294 6.97489929 46.77545166 C8.27184219 46.75480652 9.5687851 46.73416138 10.9050293 46.71289062 C12.24594785 46.70542876 13.58687731 46.69973557 14.92781067 46.69573975 C18.45443921 46.68047862 21.98040711 46.64119412 25.5067749 46.59692383 C29.10623233 46.5559806 32.70579667 46.53773085 36.30541992 46.51757812 C43.36623681 46.47469929 50.42660551 46.40644307 57.48706055 46.32226562 C57.98206055 45.33226563 57.98206055 45.33226563 58.48706055 44.32226562 C57.73759659 44.31195816 56.98813263 44.3016507 56.21595764 44.29103088 C49.167156 44.19322038 42.11844181 44.09072987 35.06978703 43.98292637 C31.44564475 43.92766465 27.82149445 43.87423962 24.19726562 43.82495117 C20.70238955 43.7773553 17.20761435 43.72501452 13.7128582 43.66932487 C11.72472232 43.6389015 9.73651245 43.61344581 7.74830627 43.58802795 C6.54713669 43.56808273 5.3459671 43.54813751 4.10839844 43.52758789 C2.51288902 43.50427147 2.51288902 43.50427147 0.88514709 43.48048401 C-1.51293945 43.32226562 -1.51293945 43.32226562 -2.51293945 42.32226562 C-2.51293945 32.09226562 -2.51293945 21.86226562 -2.51293945 11.32226562 C22.56706055 11.65226563 47.64706055 11.98226563 73.48706055 12.32226562 C73.48706055 22.88226563 73.48706055 33.44226563 73.48706055 44.32226562 C74.47706055 44.32226562 75.46706055 44.32226562 76.48706055 44.32226562 C78.59161374 40.11315923 77.71394514 34.63112643 77.72729492 30.00097656 C77.73699132 27.96182316 77.76801058 25.92368202 77.79956055 23.88476562 C77.8047168 22.59828125 77.80987305 21.31179687 77.81518555 19.98632812 C77.82453125 18.80506348 77.83387695 17.62379883 77.84350586 16.40673828 C77.4365244 12.88495492 77.0407918 11.74653672 74.48706055 9.32226562 C71.89433821 8.91876794 69.72029277 8.77486816 67.12573242 8.8046875 C66.37908829 8.79767822 65.63244415 8.79066895 64.86317444 8.78344727 C62.39367546 8.76583344 59.92532129 8.77750113 57.45581055 8.79101562 C55.74092387 8.78832166 54.02603867 8.78444004 52.31115723 8.77941895 C48.71648623 8.77351934 45.12221271 8.78210148 41.52758789 8.80078125 C36.91696283 8.82357137 32.30726904 8.81045072 27.69667816 8.78649139 C24.15534431 8.77204572 20.61423171 8.77663368 17.07289124 8.78700256 C15.3728067 8.78967327 13.67270216 8.786388 11.97264099 8.77708435 C9.59734805 8.76693858 7.22356869 8.78239 4.84838867 8.8046875 C3.79162682 8.79254211 3.79162682 8.79254211 2.71351624 8.78015137 C-0.46741837 8.83554724 -2.09803953 8.9275701 -4.44876099 11.16381836 Z M3.48706055 18.32226562 C3.48706055 24.59226562 3.48706055 30.86226562 3.48706055 37.32226562 C4.14706055 37.32226562 4.80706055 37.32226562 5.48706055 37.32226562 C5.48706055 35.67226563 5.48706055 34.02226563 5.48706055 32.32226562 C6.22956055 32.77601562 6.97206055 33.22976562 7.73706055 33.69726562 C9.95636633 35.00867359 12.16673877 36.20507366 14.48706055 37.32226562 C13.04629009 33.96046788 11.23956034 31.73070294 8.48706055 29.32226562 C7.82706055 29.32226562 7.16706055 29.32226562 6.48706055 29.32226562 C7.61629431 26.27333447 9.12142635 24.67684988 11.61206055 22.69726562 C13.03518555 21.52164062 13.03518555 21.52164062 14.48706055 20.32226562 C14.48706055 19.66226562 14.48706055 19.00226562 14.48706055 18.32226562 C11.3750799 19.82062668 8.43359905 21.52160321 5.48706055 23.32226562 C5.48706055 21.67226563 5.48706055 20.02226562 5.48706055 18.32226562 C4.82706055 18.32226562 4.16706055 18.32226562 3.48706055 18.32226562 Z M22.7800293 19.39648438 C20.8917468 22.20894139 21.08939473 24.46772466 21.11206055 27.82226562 C21.10432617 28.96695312 21.0965918 30.11164062 21.08862305 31.29101562 C21.23820045 34.29444844 21.23820045 34.29444844 22.85424805 36.20507812 C25.19944637 37.80968751 26.70993441 37.73883455 29.48706055 37.32226562 C31.36346473 36.1130768 31.36346473 36.1130768 32.48706055 34.32226562 C32.48706055 33.33226562 32.48706055 32.34226562 32.48706055 31.32226562 C31.82706055 31.32226562 31.16706055 31.32226562 30.48706055 31.32226562 C30.15706055 32.31226563 29.82706055 33.30226563 29.48706055 34.32226562 C27.83706055 34.32226562 26.18706055 34.32226562 24.48706055 34.32226562 C24.48706055 30.03226563 24.48706055 25.74226563 24.48706055 21.32226562 C26.13706055 21.32226562 27.78706055 21.32226562 29.48706055 21.32226562 C29.81706055 22.31226563 30.14706055 23.30226563 30.48706055 24.32226562 C31.14706055 24.32226562 31.80706055 24.32226562 32.48706055 24.32226562 C32.15706055 22.67226563 31.82706055 21.02226562 31.48706055 19.32226562 C26.98304537 18.12836724 26.98304537 18.12836724 22.7800293 19.39648438 Z M41.48706055 18.32226562 C38.95930704 22.11389589 39.2626302 25.13100593 39.36206055 29.50976562 C39.37108398 30.25935547 39.38010742 31.00894531 39.3894043 31.78125 C39.41293477 33.62839217 39.44880494 35.47536975 39.48706055 37.32226562 C40.14706055 37.32226562 40.80706055 37.32226562 41.48706055 37.32226562 C41.48706055 35.34226562 41.48706055 33.36226562 41.48706055 31.32226562 C44.45706055 31.81726563 44.45706055 31.81726563 47.48706055 32.32226562 C47.81706055 33.97226562 48.14706055 35.62226562 48.48706055 37.32226562 C49.14706055 37.32226562 49.80706055 37.32226562 50.48706055 37.32226562 C50.56799185 34.7174768 50.62751489 32.11519909 50.67456055 29.50976562 C50.69969727 28.77177734 50.72483398 28.03378906 50.75073242 27.2734375 C50.84588565 23.07374673 50.84588565 23.07374673 49.16674805 19.33398438 C46.53579623 17.74929479 44.47514317 17.94080827 41.48706055 18.32226562 Z M57.48706055 18.32226562 C57.46022067 21.30149156 57.44030018 24.28047857 57.42456055 27.25976562 C57.41618164 28.10990234 57.40780273 28.96003906 57.39916992 29.8359375 C57.39594727 30.64482422 57.39272461 31.45371094 57.3894043 32.28710938 C57.38416748 33.03597412 57.37893066 33.78483887 57.37353516 34.55639648 C57.29364302 36.34894301 57.29364302 36.34894301 58.48706055 37.32226562 C60.17315021 37.39432074 61.86206714 37.4061263 63.54956055 37.38476562 C64.46866211 37.37574219 65.38776367 37.36671875 66.3347168 37.35742188 C67.04499023 37.34582031 67.75526367 37.33421875 68.48706055 37.32226562 C68.15706055 36.66226563 67.82706055 36.00226562 67.48706055 35.32226562 C64.84706055 35.32226562 62.20706055 35.32226562 59.48706055 35.32226562 C59.48706055 29.71226563 59.48706055 24.10226563 59.48706055 18.32226562 C58.82706055 18.32226562 58.16706055 18.32226562 57.48706055 18.32226562 Z M-6.0168457 57.03710938 C-7.75828147 59.69700474 -8.0514705 61.16271961 -8.01293945 64.32226562 C-8.02325195 65.16789062 -8.03356445 66.01351562 -8.04418945 66.88476562 C-7.31098171 70.24889525 -6.34280916 71.35658082 -3.51293945 73.32226562 C-0.68661291 73.69616507 1.67729982 73.83866289 4.48706055 73.75976562 C5.5544043 73.77040039 5.5544043 73.77040039 6.64331055 73.78125 C9.72085799 73.743929 12.15816273 73.47554344 14.9597168 72.16992188 C17.13160622 69.54254669 16.98648817 67.69112831 16.92456055 64.32226562 C16.92327148 63.27039062 16.92198242 62.21851563 16.9206543 61.13476562 C16.65946227 58.39331623 16.65946227 58.39331623 15.48706055 56.47460938 C12.20347301 54.58269859 8.73327305 54.85074309 5.04956055 54.88476562 C4.28579102 54.86478516 3.52202148 54.84480469 2.73510742 54.82421875 C-0.9383798 54.82741587 -2.92930445 54.92255304 -6.0168457 57.03710938 Z M24.97924805 57.02929688 C23.24554863 59.69338472 22.94853598 61.16325108 22.98706055 64.32226562 C22.97674805 65.16789062 22.96643555 66.01351562 22.95581055 66.88476562 C23.68831535 70.24567003 24.66630831 71.35086826 27.48706055 73.32226562 C30.30192887 73.75145165 32.62087909 73.92821374 35.42456055 73.88476562 C36.12774414 73.90861328 36.83092773 73.93246094 37.55541992 73.95703125 C41.47886897 73.946 43.32736217 73.44465914 46.46362305 71.04101562 C49.47075095 67.00055034 49.03463707 65.25045435 48.48706055 60.32226562 C47.47830843 57.51217043 47.15310638 56.65528854 44.48706055 55.32226562 C41.68015329 55.14501786 38.92075258 55.04475764 36.11206055 55.00976562 C35.3437793 54.98076172 34.57549805 54.95175781 33.78393555 54.921875 C30.08630765 54.88029268 28.0970149 54.90707863 24.97924805 57.02929688 Z M56.48706055 56.32226562 C53.88687238 60.22254787 54.3362054 63.79661132 54.48706055 68.32226562 C55.47706055 68.32226562 56.46706055 68.32226562 57.48706055 68.32226562 C57.81706055 64.36226562 58.14706055 60.40226562 58.48706055 56.32226562 C57.82706055 56.32226562 57.16706055 56.32226562 56.48706055 56.32226562 Z M-6.51293945 81.32226562 C-7.80298241 83.90235155 -7.7170417 85.87968137 -7.76293945 88.75976562 C-7.7887207 89.72785156 -7.81450195 90.6959375 -7.84106445 91.69335938 C-7.45427343 94.79229219 -6.92413396 95.4339032 -4.51293945 97.32226562 C-2.54197271 97.77998527 -2.54197271 97.77998527 -0.38793945 97.72070312 C0.79541992 97.72650391 0.79541992 97.72650391 2.00268555 97.73242188 C3.23245117 97.71501953 3.23245117 97.71501953 4.48706055 97.69726562 C5.3069043 97.70886719 6.12674805 97.72046875 6.97143555 97.73242188 C7.7603418 97.72855469 8.54924805 97.7246875 9.36206055 97.72070312 C10.08135742 97.71731934 10.8006543 97.71393555 11.54174805 97.71044922 C14.05150023 97.20963271 14.94049689 96.33030392 16.48706055 94.32226562 C17.03849295 91.46091166 17.03849295 91.46091166 16.98706055 88.32226562 C17.01799805 87.27039063 17.04893555 86.21851562 17.08081055 85.13476562 C16.74910478 82.18460795 16.74910478 82.18460795 14.3972168 80.46679688 C10.89374525 79.08892149 8.18373315 78.95749905 4.42456055 79.00976562 C2.6127832 79.01556641 2.6127832 79.01556641 0.7644043 79.02148438 C-2.28055887 79.30093868 -4.01038304 79.62388801 -6.51293945 81.32226562 Z M25.11206055 81.25976562 C22.96947088 85.29772308 22.52407103 88.83633947 23.48706055 93.32226562 C24.41103222 95.70210304 24.41103222 95.70210304 26.48706055 97.32226562 C29.19935558 97.61869131 31.48445787 97.70287752 34.17456055 97.57226562 C34.87645508 97.55421875 35.57834961 97.53617188 36.30151367 97.51757812 C38.03061491 97.47052775 39.7590126 97.39878435 41.48706055 97.32226562 C41.48706055 96.66226563 41.48706055 96.00226563 41.48706055 95.32226562 C40.48803711 95.26167969 39.48901367 95.20109375 38.4597168 95.13867188 C37.16936523 95.05488281 35.87901367 94.97109375 34.54956055 94.88476562 C32.61790039 94.76294922 32.61790039 94.76294922 30.6472168 94.63867188 C27.48706055 94.32226562 27.48706055 94.32226562 26.48706055 93.32226562 C26.34395767 89.65310792 26.44484393 85.99511121 26.48706055 82.32226562 C32.42706055 82.32226562 38.36706055 82.32226562 44.48706055 82.32226562 C44.48706055 81.66226563 44.48706055 81.00226563 44.48706055 80.32226562 C38.91766328 77.53756699 30.34181861 78.2574971 25.11206055 81.25976562 Z M-7.51293945 107.32226562 C-7.98845068 109.95744221 -7.98845068 109.95744221 -7.88793945 112.82226562 C-7.89567383 113.78132813 -7.9034082 114.74039063 -7.91137695 115.72851562 C-7.44379124 118.77240691 -6.90281549 119.46288001 -4.51293945 121.32226562 C-2.42626682 121.76510524 -2.42626682 121.76510524 -0.1340332 121.68554688 C1.12376953 121.68458008 1.12376953 121.68458008 2.40698242 121.68359375 C3.2790332 121.66748047 4.15108398 121.65136719 5.04956055 121.63476562 C5.92547852 121.63798828 6.80139648 121.64121094 7.70385742 121.64453125 C12.6125704 121.87704917 12.6125704 121.87704917 16.48706055 119.32226562 C16.84551658 116.26529027 16.84551658 116.26529027 16.79956055 112.82226562 C16.81631836 111.65695313 16.83307617 110.49164063 16.8503418 109.29101562 C16.73045898 108.31132813 16.61057617 107.33164063 16.48706055 106.32226562 C12.4163293 103.60844479 9.26377943 103.99098921 4.48706055 104.00976562 C3.6672168 103.99365234 2.84737305 103.97753906 2.00268555 103.9609375 C0.81932617 103.9599707 0.81932617 103.9599707 -0.38793945 103.95898438 C-1.46688477 103.95451294 -1.46688477 103.95451294 -2.56762695 103.94995117 C-5.08058681 104.43090797 -5.96477408 105.31919617 -7.51293945 107.32226562 Z M24.4987793 106.02148438 C23.34243295 108.65116777 23.08610515 110.51669473 23.11206055 113.38476562 C23.10045898 114.67060547 23.10045898 114.67060547 23.08862305 115.98242188 C23.57400668 118.83286106 24.24184212 119.55223234 26.48706055 121.32226562 C28.57272547 121.78093753 28.57272547 121.78093753 30.8659668 121.72070312 C32.12376953 121.72650391 32.12376953 121.72650391 33.40698242 121.73242188 C34.2790332 121.72082031 35.15108398 121.70921875 36.04956055 121.69726562 C36.92547852 121.70886719 37.80139648 121.72046875 38.70385742 121.73242188 C39.54110352 121.72855469 40.37834961 121.7246875 41.2409668 121.72070312 C42.00739502 121.71731934 42.77382324 121.71393555 43.56347656 121.71044922 C45.89469079 121.47552443 45.89469079 121.47552443 47.48706055 118.32226562 C46.82706055 117.66226563 46.16706055 117.00226563 45.48706055 116.32226562 C45.15706055 116.98226562 44.82706055 117.64226562 44.48706055 118.32226562 C38.54706055 118.65226562 32.60706055 118.98226562 26.48706055 119.32226562 C26.3894043 110.82617188 26.3894043 110.82617188 26.48706055 108.32226562 C28.54628456 106.26304161 32.70414179 106.90798983 35.54956055 106.75976562 C36.30817383 106.71658203 37.06678711 106.67339844 37.84838867 106.62890625 C39.72771492 106.52252929 41.60736298 106.42186629 43.48706055 106.32226562 C43.15706055 105.66226563 42.82706055 105.00226563 42.48706055 104.32226562 C39.8817895 104.21433725 37.28097744 104.13501685 34.67456055 104.07226562 C33.93657227 104.03875 33.19858398 104.00523438 32.43823242 103.97070312 C28.10271198 103.86629649 28.10271198 103.86629649 24.4987793 106.02148438 Z " fill="#D70000" transform="translate(29.512939453125,0.677734375)"/>
<path d="M0 0 C9.89189376 -0.02312428 19.78378114 -0.04091552 29.67569637 -0.05181217 C34.2684264 -0.05704082 38.861138 -0.06413812 43.45385742 -0.07543945 C47.88233688 -0.086269 52.31079856 -0.09227698 56.73929024 -0.09487724 C58.43265628 -0.09673137 60.12602129 -0.10035175 61.81937981 -0.10573006 C64.18291232 -0.1129414 66.54637045 -0.1139909 68.90991211 -0.11352539 C69.61697296 -0.11712067 70.32403381 -0.12071594 71.05252075 -0.12442017 C75.88594784 -0.11405216 75.88594784 -0.11405216 77 1 C77.02651846 3.23436939 76.98748414 5.46956165 76.921875 7.703125 C76.89459887 9.08982002 76.86859825 10.4765406 76.84375 11.86328125 C76.80061372 14.05391791 76.75022408 16.24323063 76.67773438 18.43310547 C76.6108233 20.54415002 76.57627165 22.65376688 76.546875 24.765625 C76.49805176 26.66489746 76.49805176 26.66489746 76.44824219 28.60253906 C77.14721034 32.9064509 78.71100972 34.24647675 82 37 C89.93556206 44.84011716 89.93556206 44.84011716 90.1875 49.375 C89.03610138 51.92019695 87.99779234 53.12809595 86 55 C85.82984375 54.32453125 85.6596875 53.6490625 85.484375 52.953125 C83.64040309 46.16573903 81.92517107 42.95011405 76 39 C73.72087062 38.54605448 73.72087062 38.54605448 71.3125 38.375 C70.50425781 38.30023438 69.69601563 38.22546875 68.86328125 38.1484375 C68.24839844 38.09945312 67.63351563 38.05046875 67 38 C67.97915256 43.79761382 69.07273921 48.41819575 73 53 C76.91579473 55.4686532 80.42331689 56.45515677 85 57 C84.67 58.65 84.34 60.3 84 62 C83.236875 61.835 82.47375 61.67 81.6875 61.5 C73.42394581 60.37951808 66.84647413 59.79667966 60 65 C54.48268959 70.50259758 52.58504127 75.07910963 52.5625 82.8125 C52.57030525 94.89503308 55.96029412 106.69802146 64 116 C69.23836202 121.29909222 69.23836202 121.29909222 76.15234375 123.0625 C78.67317779 123.02087632 81.19401113 122.97920974 83.71484375 122.9375 C87 123 87 123 90 124 C95.93126674 124.83037734 99.20636148 123.22410136 103.86328125 119.81640625 C111.56744532 113.26716257 117.24217329 102.05310785 118.19287109 91.95043945 C118.28063829 89.40439289 118.33453844 86.8597392 118.375 84.3125 C118.41238281 83.43916016 118.44976562 82.56582031 118.48828125 81.66601562 C118.57564711 75.1669663 117.10520332 71.05334346 113 66 C108.79174744 62.05476322 104.19943228 60.72444697 98.5 60.8125 C97.12328125 60.82216797 97.12328125 60.82216797 95.71875 60.83203125 C93.06134313 60.99621012 90.59373754 61.41265001 88 62 C89.91555703 58.36044164 91.1304544 56.45770554 95 55 C102.59248975 54.13630408 109.8095348 54.14286576 116 59 C123.21969931 65.72380077 126.47078934 72.70907673 127.0625 82.55859375 C126.79574413 97.24683897 122.28664669 112.24040404 112 123 C111.53008133 123.49261322 111.06016266 123.98522644 110.57600403 124.49276733 C105.9397354 128.9388666 102.61678288 129.89674802 96.28515625 129.796875 C95.47058456 129.80261536 94.65601288 129.80835571 93.8167572 129.81427002 C92.10315146 129.81833189 90.38945093 129.80740738 88.67602539 129.78222656 C86.0715922 129.75011211 83.47338127 129.78194613 80.86914062 129.8203125 C65.70614017 129.86041613 65.70614017 129.86041613 60.29858398 124.62084961 C58.59202179 122.49077509 57.18998795 120.46217901 56 118 C55.00554905 116.22604453 54.0056013 114.45515854 53 112.6875 C52.505 111.80449219 52.01 110.92148438 51.5 110.01171875 C51.005 109.34785156 50.51 108.68398437 50 108 C49.01 108 48.02 108 47 108 C41 108 35 108 29 108 C27.82326802 105.64653604 27.83376134 104.1193967 27.8125 101.5 C27.79832031 100.7059375 27.78414062 99.911875 27.76953125 99.09375 C28 97 28 97 30 95 C32.56916657 94.69400937 35.04758384 94.48912913 37.625 94.375 C38.33140625 94.33632812 39.0378125 94.29765625 39.765625 94.2578125 C41.50998524 94.16352276 43.25495691 94.08067109 45 94 C45.08004482 90.4780279 45.04005702 87.38018531 44 84 C43.01257813 84.02320312 42.02515625 84.04640625 41.0078125 84.0703125 C39.08582031 84.09738281 39.08582031 84.09738281 37.125 84.125 C35.84882812 84.14820312 34.57265625 84.17140625 33.2578125 84.1953125 C30 84 30 84 28 82 C27.76953125 79.90625 27.76953125 79.90625 27.8125 77.5 C27.81894531 76.7059375 27.82539062 75.911875 27.83203125 75.09375 C28 73 28 73 29 71 C34.94 71 40.88 71 47 71 C47.66 69.68 48.32 68.36 49 67 C50.62109375 65.18359375 50.62109375 65.18359375 52.4375 63.4375 C53.03433594 62.85871094 53.63117188 62.27992187 54.24609375 61.68359375 C56 60 56 60 57.64453125 58.8046875 C59.88651937 55.81967738 59.89421297 52.29751148 60.25 48.6875 C60.38535156 47.56698242 60.38535156 47.56698242 60.5234375 46.42382812 C61.00271467 42.0214354 60.76857837 38.38835796 60 34 C59.26528473 33.99191315 58.53056946 33.98382629 57.77359009 33.97549438 C50.8574793 33.89762907 43.94154454 33.81036306 37.02569008 33.71247292 C33.46996607 33.66247696 29.91427224 33.61614756 26.35839844 33.578125 C22.27259361 33.53427667 18.18715419 33.47461194 14.1015625 33.4140625 C12.18121689 33.39673569 12.18121689 33.39673569 10.22207642 33.37905884 C9.04100311 33.35918915 7.85992981 33.33931946 6.64306641 33.31884766 C5.59937897 33.30552399 4.55569153 33.29220032 3.4803772 33.2784729 C1 33 1 33 -1 31 C-1.24291992 28.14257812 -1.24291992 28.14257812 -1.23046875 24.53125 C-1.22853516 23.23832031 -1.22660156 21.94539063 -1.22460938 20.61328125 C-1.21840576 19.93861816 -1.21220215 19.26395508 -1.20581055 18.56884766 C-1.18757091 16.50801218 -1.18530077 14.44762647 -1.18554688 12.38671875 C-1.14020451 2.28040902 -1.14020451 2.28040902 0 0 Z M6 7 C6 13.27 6 19.54 6 26 C6.66 26 7.32 26 8 26 C8 24.35 8 22.7 8 21 C8.7425 21.45375 9.485 21.9075 10.25 22.375 C12.46930578 23.68640796 14.67967822 24.88280803 17 26 C15.55922954 22.63820226 13.75249979 20.40843732 11 18 C10.34 18 9.68 18 9 18 C10.12923376 14.95106884 11.6343658 13.35458426 14.125 11.375 C15.548125 10.199375 15.548125 10.199375 17 9 C17 8.34 17 7.68 17 7 C13.88801935 8.49836105 10.9465385 10.19933758 8 12 C8 10.35 8 8.7 8 7 C7.34 7 6.68 7 6 7 Z M25.29296875 8.07421875 C23.40468625 10.88667577 23.60233418 13.14545904 23.625 16.5 C23.61726563 17.6446875 23.60953125 18.789375 23.6015625 19.96875 C23.7511399 22.97218281 23.7511399 22.97218281 25.3671875 24.8828125 C27.71238583 26.48742188 29.22287387 26.41656892 32 26 C33.87640419 24.79081118 33.87640419 24.79081118 35 23 C35 22.01 35 21.02 35 20 C34.34 20 33.68 20 33 20 C32.67 20.99 32.34 21.98 32 23 C30.35 23 28.7 23 27 23 C27 18.71 27 14.42 27 10 C28.65 10 30.3 10 32 10 C32.33 10.99 32.66 11.98 33 13 C33.66 13 34.32 13 35 13 C34.67 11.35 34.34 9.7 34 8 C29.49598482 6.80610161 29.49598482 6.80610161 25.29296875 8.07421875 Z M44 7 C41.47224649 10.79163027 41.77556965 13.80874031 41.875 18.1875 C41.88402344 18.93708984 41.89304688 19.68667969 41.90234375 20.45898438 C41.92587422 22.30612654 41.96174439 24.15310412 42 26 C42.66 26 43.32 26 44 26 C44 24.02 44 22.04 44 20 C46.97 20.495 46.97 20.495 50 21 C50.33 22.65 50.66 24.3 51 26 C51.66 26 52.32 26 53 26 C53.0809313 23.39521117 53.14045434 20.79293347 53.1875 18.1875 C53.21263672 17.44951172 53.23777344 16.71152344 53.26367188 15.95117188 C53.3588251 11.7514811 53.3588251 11.7514811 51.6796875 8.01171875 C49.04873568 6.42702916 46.98808262 6.61854264 44 7 Z M60 7 C59.97316013 9.97922593 59.95323963 12.95821295 59.9375 15.9375 C59.92912109 16.78763672 59.92074219 17.63777344 59.91210938 18.51367188 C59.90888672 19.32255859 59.90566406 20.13144531 59.90234375 20.96484375 C59.89710693 21.7137085 59.89187012 22.46257324 59.88647461 23.23413086 C59.80658248 25.02667739 59.80658248 25.02667739 61 26 C62.68608966 26.07205511 64.37500659 26.08386068 66.0625 26.0625 C66.98160156 26.05347656 67.90070313 26.04445313 68.84765625 26.03515625 C69.55792969 26.02355469 70.26820312 26.01195313 71 26 C70.67 25.34 70.34 24.68 70 24 C67.36 24 64.72 24 62 24 C62 18.39 62 12.78 62 7 C61.34 7 60.68 7 60 7 Z " fill="#FDF1F1" transform="translate(27,12)"/>
<path d="M0 0 C5.67667842 -0.5792529 9.92993054 -0.43775922 14.4921875 3.22265625 C17.38517111 6.63277942 18.68113571 10.78127262 20 15 C21.94566951 11.52452927 22.07637127 9.87493656 21 6 C21.99 5.67 22.98 5.34 24 5 C24.66 4.01 25.32 3.02 26 2 C30.05606165 2.46800711 33.46588679 2.87953208 37 5 C36.50951141 9.20521837 35.52366362 10.91034019 32.25 13.5625 C31.53199219 14.15546875 30.81398437 14.7484375 30.07421875 15.359375 C28.40541967 16.67932907 26.7343259 17.99638174 25.0625 19.3125 C22.91019125 20.83873758 22.91019125 20.83873758 22 23 C22.55171875 22.84144531 23.1034375 22.68289062 23.671875 22.51953125 C30.46882987 21.00276112 37.19158157 21.20753279 43.28125 24.7265625 C47.25499918 27.67074939 50.05424786 31.45546565 52 36 C54.18487165 50.74570744 51.32027952 65.0318765 42.5390625 77.16796875 C40.23955052 79.90520509 37.90410659 81.89915694 35 84 C34.195625 84.598125 33.39125 85.19625 32.5625 85.8125 C28.43454102 87.7254566 24.64924761 87.2998632 20.25 86.5 C17.18830884 86.02897059 14.58234395 86.06670544 11.5 86.1875 C5.24216727 86.20439024 2.56519246 84.41700405 -1.9609375 80.15234375 C-11.70630008 70.17149843 -15.45585082 56.96080428 -15.43383789 43.2878418 C-15.24540888 36.1111201 -13.2858169 32.24986704 -8.21484375 27.234375 C-2.87148005 22.37883431 1.12561188 21.78473549 8.2578125 21.83203125 C11.43105783 22.02640383 14.08441473 22.73920637 17 24 C17.33 22.35 17.66 20.7 18 19 C17.41992188 18.98582031 16.83984375 18.97164062 16.2421875 18.95703125 C10.34277072 18.59683584 7.13562252 17.52949133 3 13 C0.54875863 8.50605748 -0.37355373 5.1052343 0 0 Z " fill="#E90303" transform="translate(94,50)"/>
<path d="M0 0 C9.89189376 -0.02312428 19.78378114 -0.04091552 29.67569637 -0.05181217 C34.2684264 -0.05704082 38.861138 -0.06413812 43.45385742 -0.07543945 C47.88233688 -0.086269 52.31079856 -0.09227698 56.73929024 -0.09487724 C58.43265628 -0.09673137 60.12602129 -0.10035175 61.81937981 -0.10573006 C64.18291232 -0.1129414 66.54637045 -0.1139909 68.90991211 -0.11352539 C69.61697296 -0.11712067 70.32403381 -0.12071594 71.05252075 -0.12442017 C75.88594784 -0.11405216 75.88594784 -0.11405216 77 1 C77.08790975 3.29151417 77.10694038 5.58572524 77.09765625 7.87890625 C77.0962413 8.5655687 77.09482635 9.25223114 77.09336853 9.95970154 C77.08775479 12.16067801 77.07520007 14.36155409 77.0625 16.5625 C77.05748676 18.05143083 77.05292355 19.54036324 77.04882812 21.02929688 C77.03778093 24.68623075 77.02050713 28.34310558 77 32 C73.48387888 33.17204037 70.70160066 33.13424628 66.98999023 33.14526367 C65.92613602 33.15030159 65.92613602 33.15030159 64.84078979 33.15544128 C62.49670664 33.16493977 60.15269495 33.16689358 57.80859375 33.16796875 C56.18099437 33.17118117 54.55339528 33.17454523 52.92579651 33.17805481 C49.51538422 33.18404265 46.10499726 33.18589497 42.69458008 33.18530273 C38.31728028 33.18520092 33.94014197 33.19887469 29.56288052 33.21607494 C26.2026545 33.22717153 22.84246789 33.2292227 19.48222542 33.22869301 C17.86783349 33.22987584 16.25344064 33.23431448 14.6390667 33.24202538 C12.38613281 33.2517819 10.13355438 33.24896509 7.88061523 33.24291992 C6.59726791 33.24434494 5.31392059 33.24576996 3.99168396 33.24723816 C1 33 1 33 -1 31 C-1.24291992 28.14257812 -1.24291992 28.14257812 -1.23046875 24.53125 C-1.22853516 23.23832031 -1.22660156 21.94539063 -1.22460938 20.61328125 C-1.21840576 19.93861816 -1.21220215 19.26395508 -1.20581055 18.56884766 C-1.18757091 16.50801218 -1.18530077 14.44762647 -1.18554688 12.38671875 C-1.14020451 2.28040902 -1.14020451 2.28040902 0 0 Z M6 7 C6 13.27 6 19.54 6 26 C6.66 26 7.32 26 8 26 C8 24.35 8 22.7 8 21 C8.7425 21.45375 9.485 21.9075 10.25 22.375 C12.46930578 23.68640796 14.67967822 24.88280803 17 26 C15.55922954 22.63820226 13.75249979 20.40843732 11 18 C10.34 18 9.68 18 9 18 C10.12923376 14.95106884 11.6343658 13.35458426 14.125 11.375 C15.548125 10.199375 15.548125 10.199375 17 9 C17 8.34 17 7.68 17 7 C13.88801935 8.49836105 10.9465385 10.19933758 8 12 C8 10.35 8 8.7 8 7 C7.34 7 6.68 7 6 7 Z M25.29296875 8.07421875 C23.40468625 10.88667577 23.60233418 13.14545904 23.625 16.5 C23.61726563 17.6446875 23.60953125 18.789375 23.6015625 19.96875 C23.7511399 22.97218281 23.7511399 22.97218281 25.3671875 24.8828125 C27.71238583 26.48742188 29.22287387 26.41656892 32 26 C33.87640419 24.79081118 33.87640419 24.79081118 35 23 C35 22.01 35 21.02 35 20 C34.34 20 33.68 20 33 20 C32.67 20.99 32.34 21.98 32 23 C30.35 23 28.7 23 27 23 C27 18.71 27 14.42 27 10 C28.65 10 30.3 10 32 10 C32.33 10.99 32.66 11.98 33 13 C33.66 13 34.32 13 35 13 C34.67 11.35 34.34 9.7 34 8 C29.49598482 6.80610161 29.49598482 6.80610161 25.29296875 8.07421875 Z M44 7 C41.47224649 10.79163027 41.77556965 13.80874031 41.875 18.1875 C41.88402344 18.93708984 41.89304688 19.68667969 41.90234375 20.45898438 C41.92587422 22.30612654 41.96174439 24.15310412 42 26 C42.66 26 43.32 26 44 26 C44 24.02 44 22.04 44 20 C46.97 20.495 46.97 20.495 50 21 C50.33 22.65 50.66 24.3 51 26 C51.66 26 52.32 26 53 26 C53.0809313 23.39521117 53.14045434 20.79293347 53.1875 18.1875 C53.21263672 17.44951172 53.23777344 16.71152344 53.26367188 15.95117188 C53.3588251 11.7514811 53.3588251 11.7514811 51.6796875 8.01171875 C49.04873568 6.42702916 46.98808262 6.61854264 44 7 Z M60 7 C59.97316013 9.97922593 59.95323963 12.95821295 59.9375 15.9375 C59.92912109 16.78763672 59.92074219 17.63777344 59.91210938 18.51367188 C59.90888672 19.32255859 59.90566406 20.13144531 59.90234375 20.96484375 C59.89710693 21.7137085 59.89187012 22.46257324 59.88647461 23.23413086 C59.80658248 25.02667739 59.80658248 25.02667739 61 26 C62.68608966 26.07205511 64.37500659 26.08386068 66.0625 26.0625 C66.98160156 26.05347656 67.90070313 26.04445313 68.84765625 26.03515625 C69.55792969 26.02355469 70.26820312 26.01195313 71 26 C70.67 25.34 70.34 24.68 70 24 C67.36 24 64.72 24 62 24 C62 18.39 62 12.78 62 7 C61.34 7 60.68 7 60 7 Z " fill="#D70000" transform="translate(27,12)"/>
<path d="M0 0 C2.75141192 -0.24905022 5.25669812 -0.32673572 8 -0.25 C9.10601562 -0.24226563 9.10601562 -0.24226563 10.234375 -0.234375 C15.69055451 -0.15472274 15.69055451 -0.15472274 18 1 C19.1845131 4.55353929 19.26641894 7.27013478 19 11 C17.953125 12.69921875 17.953125 12.69921875 16 14 C13.40356536 14.2719239 11.08709951 14.37409761 8.5 14.3125 C7.48486328 14.31733398 7.48486328 14.31733398 6.44921875 14.32226562 C2.76526986 14.28230168 1.13792046 14.09194697 -2 12 C-2.36328125 9.94140625 -2.36328125 9.94140625 -2.3125 7.5625 C-2.30863281 6.78003906 -2.30476563 5.99757813 -2.30078125 5.19140625 C-2 3 -2 3 0 0 Z " fill="#D80000" transform="translate(57,58)"/>
<path d="M0 0 C1.4583982 0.00399197 2.91679743 0.01875035 4.375 0.04296875 C5.11234375 0.04361328 5.8496875 0.04425781 6.609375 0.04492188 C12.09398191 0.08995971 12.09398191 0.08995971 14.375 1.23046875 C14.375 5.19046875 14.375 9.15046875 14.375 13.23046875 C11.21544583 14.81024583 7.84036183 14.41493959 4.375 14.41796875 C3.63765625 14.43021484 2.9003125 14.44246094 2.140625 14.45507812 C0.21729942 14.4603427 -1.70554263 14.35250322 -3.625 14.23046875 C-5.625 12.23046875 -5.625 12.23046875 -5.890625 9.91796875 C-5.88546875 9.03109375 -5.8803125 8.14421875 -5.875 7.23046875 C-5.88015625 6.34359375 -5.8853125 5.45671875 -5.890625 4.54296875 C-5.41891385 0.43630701 -3.95697478 0.25157491 0 0 Z " fill="#D70000" transform="translate(29.625,57.76953125)"/>
<path d="M0 0 C4.78904862 -0.48867843 8.73890964 -0.64765771 12.875 2.0625 C17.20802589 5.61317399 18.5079407 9.9939121 19.8125 15.3125 C19.874375 16.199375 19.93625 17.08625 20 18 C19.34 18.66 18.68 19.32 18 20 C13.50954545 19.84732455 9.21104775 18.53357141 5.625 15.8125 C1.82375565 11.73973819 0.11670707 8.1396296 -0.1875 2.5625 C-0.125625 1.716875 -0.06375 0.87125 0 0 Z " fill="#EB1010" transform="translate(94,50)"/>
<path d="M0 0 C0.804375 -0.00128906 1.60875 -0.00257812 2.4375 -0.00390625 C3.283125 -0.00003906 4.12875 0.00382812 5 0.0078125 C6.2684375 0.00201172 6.2684375 0.00201172 7.5625 -0.00390625 C8.366875 -0.00261719 9.17125 -0.00132813 10 0 C10.7425 0.00112793 11.485 0.00225586 12.25 0.00341797 C14 0.1328125 14 0.1328125 15 1.1328125 C15.09851171 2.96397133 15.12972629 4.79901183 15.125 6.6328125 C15.12886719 8.13328125 15.12886719 8.13328125 15.1328125 9.6640625 C15 12.1328125 15 12.1328125 14 13.1328125 C12.66956375 13.2311846 11.33406656 13.26359842 10 13.265625 C9.195625 13.26691406 8.39125 13.26820312 7.5625 13.26953125 C6.716875 13.26566406 5.87125 13.26179688 5 13.2578125 C4.154375 13.26167969 3.30875 13.26554687 2.4375 13.26953125 C1.633125 13.26824219 0.82875 13.26695313 0 13.265625 C-0.7425 13.26449707 -1.485 13.26336914 -2.25 13.26220703 C-4 13.1328125 -4 13.1328125 -5 12.1328125 C-5.09851171 10.30165367 -5.12972629 8.46661317 -5.125 6.6328125 C-5.12757812 5.6325 -5.13015625 4.6321875 -5.1328125 3.6015625 C-4.91747067 -0.40126211 -3.60876586 0.00548207 0 0 Z " fill="#D80000" transform="translate(29,106.8671875)"/>
<path d="M0 0 C0.804375 -0.00128906 1.60875 -0.00257812 2.4375 -0.00390625 C3.283125 -0.00003906 4.12875 0.00382812 5 0.0078125 C6.2684375 0.00201172 6.2684375 0.00201172 7.5625 -0.00390625 C8.366875 -0.00261719 9.17125 -0.00132813 10 0 C10.7425 0.00112793 11.485 0.00225586 12.25 0.00341797 C14 0.1328125 14 0.1328125 15 1.1328125 C15.09851171 2.96397133 15.12972629 4.79901183 15.125 6.6328125 C15.12886719 8.13328125 15.12886719 8.13328125 15.1328125 9.6640625 C15 12.1328125 15 12.1328125 14 13.1328125 C11.17583618 13.25944341 8.38705207 13.31801798 5.5625 13.3203125 C4.77294922 13.33255859 3.98339844 13.34480469 3.16992188 13.35742188 C1.11192565 13.36268529 -0.94562009 13.25487535 -3 13.1328125 C-5 11.1328125 -5 11.1328125 -5.23046875 8.78515625 C-5.21628906 7.88925781 -5.20210937 6.99335937 -5.1875 6.0703125 C-5.18105469 5.17183594 -5.17460937 4.27335937 -5.16796875 3.34765625 C-4.88074289 -0.43971728 -3.39705144 0.00516045 0 0 Z " fill="#D60000" transform="translate(29,82.8671875)"/>
<path d="M0 0 C1.47668858 0.0133035 2.95331108 0.03716415 4.4296875 0.0703125 C5.18378906 0.07933594 5.93789062 0.08835937 6.71484375 0.09765625 C8.57826004 0.1212438 10.44151343 0.15711531 12.3046875 0.1953125 C14.14205993 4.40747064 14.57125298 7.5748442 14.3046875 12.1953125 C13.3046875 13.1953125 13.3046875 13.1953125 11.53881836 13.30883789 C10.78995361 13.30360107 10.04108887 13.29836426 9.26953125 13.29296875 C8.46064453 13.28974609 7.65175781 13.28652344 6.81835938 13.28320312 C5.96822266 13.27482422 5.11808594 13.26644531 4.2421875 13.2578125 C3.38818359 13.25330078 2.53417969 13.24878906 1.65429688 13.24414062 C-0.46226913 13.23231623 -2.57879935 13.21438019 -4.6953125 13.1953125 C-5.87204448 10.84184854 -5.86155116 9.3147092 -5.8828125 6.6953125 C-5.89699219 5.90125 -5.91117188 5.1071875 -5.92578125 4.2890625 C-5.48262356 0.26308755 -3.79996934 0.20084405 0 0 Z " fill="#D80000" transform="translate(60.6953125,106.8046875)"/>
<path d="M0 0 C5.94 0 11.88 0 18 0 C17.34 4.29 16.68 8.58 16 13 C13.54137599 13.05383848 11.0839245 13.09359038 8.625 13.125 C7.57699219 13.15013672 7.57699219 13.15013672 6.5078125 13.17578125 C4.67102514 13.19344267 2.83398037 13.10303261 1 13 C-1 11 -1 11 -1.23046875 8.90625 C-1.21628906 8.1121875 -1.20210937 7.318125 -1.1875 6.5 C-1.18105469 5.7059375 -1.17460938 4.911875 -1.16796875 4.09375 C-1 2 -1 2 0 0 Z " fill="#D80101" transform="translate(56,83)"/>
<path d="M0 0 C1.2065625 0.0309375 1.2065625 0.0309375 2.4375 0.0625 C3.80373674 2.79497348 3.565926 5.04448902 3.4375 8.0625 C2.4375 9.0625 2.4375 9.0625 -0.625 9.125 C-1.594375 9.104375 -2.56375 9.08375 -3.5625 9.0625 C-3.66015625 2.91015625 -3.66015625 2.91015625 -3.5625 1.0625 C-2.5625 0.0625 -2.5625 0.0625 0 0 Z " fill="#D70000" transform="translate(74.5625,20.9375)"/>
<path d="M0 0 C4.19458201 2.79638801 5.43474611 6.30423833 7 11 C4.36 11.33 1.72 11.66 -1 12 C-1.02687279 10.18757948 -1.04633715 8.37504767 -1.0625 6.5625 C-1.07410156 5.55316406 -1.08570312 4.54382812 -1.09765625 3.50390625 C-1 1 -1 1 0 0 Z " fill="#DB2121" transform="translate(88,58)"/>
<path d="M0 0 C0.66 0.33 1.32 0.66 2 1 C1.67 4.3 1.34 7.6 1 11 C0.34 11 -0.32 11 -1 11 C-1.02688151 9.35425434 -1.04634123 7.70838587 -1.0625 6.0625 C-1.07410156 5.14597656 -1.08570312 4.22945312 -1.09765625 3.28515625 C-1 1 -1 1 0 0 Z " fill="#D60202" transform="translate(88,58)"/>
</svg>
