<?xml version="1.0" encoding="UTF-8"?>
<svg version="1.1" xmlns="http://www.w3.org/2000/svg" width="150" height="150">
<path d="M0 0 C4.04300778 1.40267617 6.03225229 3.40805411 8.0625 7.0625 C11.01459923 14.49364635 11.76313922 22.47627815 12.6328125 30.36328125 C13.01128905 33.62162027 13.49172913 36.83313851 14.0625 40.0625 C13.51980469 40.23265625 12.97710938 40.4028125 12.41796875 40.578125 C9.29911668 41.63460102 6.66426541 42.55779353 4.125 44.6875 C2.01652659 49.40055822 1.29849653 53.96368586 3.08203125 58.86328125 C5.72912504 63.13935584 9.02865191 66.38752905 12.625 69.875 C13.65270508 70.8949707 13.65270508 70.8949707 14.70117188 71.93554688 C18.07394202 75.41519733 18.07394202 75.41519733 22.0625 78.0625 C20.59624655 72.89202729 17.36403256 70.11664432 13.5625 66.5625 C6.23965824 59.71619892 6.23965824 59.71619892 5.0625 55.0625 C5.19684241 51.23374126 5.51318033 48.86535182 7.6875 45.6875 C11.05594605 43.38277376 12.95137477 42.92770901 17.0625 43.0625 C21.68662238 45.2436898 25.56645029 48.18503075 28.75 52.1875 C32.43305655 56.76643517 36.82182626 58.95501872 42.0625 61.375 C49.79874674 65.20827541 53.17449017 70.42906342 56.2376709 78.33978271 C57.54780954 82.66448116 57.55995691 86.73967441 57.453125 91.2265625 C57.44746521 92.14464691 57.44180542 93.06273132 57.43597412 94.00863647 C57.41382475 96.9021523 57.36367171 99.79436711 57.3125 102.6875 C57.29240718 104.66534653 57.27416133 106.64321273 57.2578125 108.62109375 C57.21745466 113.43578374 57.13912797 118.24770926 57.0625 123.0625 C45.1825 123.0625 33.3025 123.0625 21.0625 123.0625 C21.0625 118.1125 21.0625 113.1625 21.0625 108.0625 C18.52955899 98.6757186 10.54762697 92.51352025 3.50390625 86.30859375 C-6.79775851 76.83106217 -6.79775851 76.83106217 -7.08467102 71.14674377 C-7.09451523 69.89892624 -7.10435944 68.6511087 -7.11450195 67.36547852 C-7.12107315 66.67750183 -7.12764435 65.98952515 -7.13441467 65.28070068 C-7.15414837 63.00093481 -7.16580864 60.72123473 -7.17578125 58.44140625 C-7.17985678 57.66367292 -7.1839323 56.8859396 -7.18813133 56.0846386 C-7.20898963 51.97040954 -7.22329392 47.85621385 -7.23266602 43.74194336 C-7.24374676 39.4867343 -7.27816587 35.23204586 -7.31783772 30.97702122 C-7.34394111 27.70939643 -7.35235208 24.44189706 -7.35594749 21.17417717 C-7.36082762 19.60523895 -7.37248204 18.03630686 -7.39098549 16.46747017 C-7.41525146 14.27419435 -7.41443627 12.08228406 -7.4074707 9.88891602 C-7.41333694 8.64030289 -7.41920319 7.39168976 -7.42524719 6.10523987 C-6.9375 3.0625 -6.9375 3.0625 -5.09172058 1.13975525 C-2.9375 0.0625 -2.9375 0.0625 0 0 Z " fill="#D60000" transform="translate(8.9375,17.9375)"/>
<path d="M0 0 C0.16254749 9.77075205 0.28674905 19.54117988 0.3626852 29.31301117 C0.3991407 33.85108873 0.44854736 38.38823794 0.52807617 42.92578125 C0.60441494 47.3089961 0.64604804 51.69132098 0.6641407 56.07514954 C0.67702533 57.74333195 0.70218733 59.41146834 0.7401104 61.07926941 C1.06094671 75.78054856 1.06094671 75.78054856 -3.31738281 80.87451172 C-4.50987048 81.95628521 -5.73748492 83.00084217 -7 84 C-8.20735647 85.13214844 -9.4099287 86.26944304 -10.60546875 87.4140625 C-12.39927328 89.03376822 -14.20431165 90.63988775 -16.01367188 92.2421875 C-20.86956833 96.63434851 -25.33917173 100.93112641 -25.75 107.8125 C-25.80671875 108.58207031 -25.8634375 109.35164063 -25.921875 110.14453125 C-26.02995791 114.09496168 -26 118.04809128 -26 122 C-37.88 122 -49.76 122 -62 122 C-62.09229421 116.20084687 -62.1717905 110.4042854 -62.21972656 104.60498047 C-62.23972787 102.63614218 -62.26693802 100.66736244 -62.30175781 98.69873047 C-62.35078531 95.85369342 -62.37308382 93.00944785 -62.390625 90.1640625 C-62.41127014 89.29697662 -62.43191528 88.42989075 -62.45318604 87.53652954 C-62.45623043 79.07098989 -59.84253951 70.97664562 -54.0390625 64.65234375 C-50.42934347 61.72722661 -46.28911179 59.78626129 -42.12109375 57.7734375 C-38.78719727 55.87908331 -36.60659718 53.79278269 -34 51 C-32.66028987 49.75509245 -31.30723518 48.52429355 -29.9375 47.3125 C-29.28652344 46.73113281 -28.63554688 46.14976563 -27.96484375 45.55078125 C-24.63157836 42.9199535 -22.81089391 41.9710395 -18.5 42.125 C-14.60742986 43.09814253 -13.25102233 43.71004428 -11 47 C-9.93579482 50.83113864 -9.64534904 53.07816357 -11.08203125 56.8125 C-13.4413793 60.73353463 -16.30098255 63.51871295 -19.625 66.625 C-20.81158133 67.73486271 -21.99157379 68.8518222 -23.1640625 69.9765625 C-23.68436035 70.46205566 -24.2046582 70.94754883 -24.74072266 71.44775391 C-26.20969906 73.25848519 -26.59464758 74.72548848 -27 77 C-22.39251469 73.11323865 -17.95001542 69.07428823 -13.625 64.875 C-12.79226562 64.06804687 -11.95953125 63.26109375 -11.1015625 62.4296875 C-8.42851404 59.33928575 -7.12095233 56.81118367 -6.84765625 52.71875 C-7.24465684 48.61881668 -7.67081248 46.44205181 -10.1875 43.0625 C-13.09166218 40.93278106 -15.52637197 39.88860252 -19 39 C-18.87882812 38.47535156 -18.75765625 37.95070312 -18.6328125 37.41015625 C-17.25743412 31.05167619 -16.44717603 24.71627281 -15.87353516 18.24243164 C-15.22546124 11.88255756 -13.9891219 5.47816419 -9.1875 0.9375 C-5.38277247 -1.37517752 -4.19371818 -0.92998771 0 0 Z " fill="#D60000" transform="translate(150,19)"/>
<path d="M0 0 C1.79296875 1.63671875 1.79296875 1.63671875 3 3 C5.57909986 1.76203207 8.03968595 0.39252444 10.5 -1.0625 C15.54019675 -3.92891211 20.16964314 -4.71979714 26 -4 C32.64338488 -2.13400696 37.36064292 1.11656651 41 7 C44.08829663 13.08609372 45.01937335 19.40791103 43 26 C39.72155736 32.27879739 35.32299662 37.08187021 30.29296875 42 C29.56757401 42.7211499 28.84217926 43.4422998 28.09480286 44.18530273 C25.79937582 46.46407327 23.49369108 48.73212895 21.1875 51 C19.61975004 52.55268634 18.05268568 54.10606525 16.48632812 55.66015625 C12.6654414 59.44814678 8.83609984 63.22741985 5 67 C2.03112811 65.65971655 -0.09269715 64.17334891 -2.41992188 61.90234375 C-3.0673938 61.27408691 -3.71486572 60.64583008 -4.38195801 59.99853516 C-5.07059937 59.31839355 -5.75924072 58.63825195 -6.46875 57.9375 C-7.186073 57.23157715 -7.903396 56.5256543 -8.64245605 55.79833984 C-10.15816731 54.30150799 -11.67099962 52.80175607 -13.18115234 51.29931641 C-15.47782036 49.02199283 -17.79492168 46.76692658 -20.11328125 44.51171875 C-21.58725794 43.05081022 -23.05995583 41.58861009 -24.53125 40.125 C-25.21989136 39.46105225 -25.90853271 38.79710449 -26.61804199 38.11303711 C-32.03777208 32.64306501 -35.47889962 26.64891798 -36.34765625 18.8984375 C-35.45712185 11.01781802 -32.98378083 5.48531739 -27.0625 0.125 C-18.09319123 -6.09860201 -9.24192574 -4.9082341 0 0 Z " fill="#D60000" transform="translate(73,16)"/>
<path d="M0 0 C2.97 0 5.94 0 9 0 C9 2.97 9 5.94 9 9 C12.3 9 15.6 9 19 9 C19 12.3 19 15.6 19 19 C15.7 19 12.4 19 9 19 C9 21.97 9 24.94 9 28 C6.03 28 3.06 28 0 28 C0 25.03 0 22.06 0 19 C-3.3 19 -6.6 19 -10 19 C-10 15.7 -10 12.4 -10 9 C-6.7 9 -3.4 9 0 9 C0 6.03 0 3.06 0 0 Z " fill="#FDF4F4" transform="translate(72,31)"/>
</svg>
