<?xml version="1.0" encoding="UTF-8"?>
<svg version="1.1" xmlns="http://www.w3.org/2000/svg" width="150" height="150">
<path d="M0 0 C0.72711182 0.00718552 1.45422363 0.01437103 2.20336914 0.02177429 C3.32400757 0.02246162 3.32400757 0.02246162 4.46728516 0.02316284 C6.04762357 0.02618529 7.627959 0.03407141 9.20825195 0.0464325 C11.63121054 0.06467034 14.05378663 0.06694231 16.47680664 0.06669617 C18.01066412 0.07161212 19.544519 0.07744078 21.07836914 0.08427429 C22.16903687 0.08594353 22.16903687 0.08594353 23.28173828 0.08764648 C28.40872229 0.13616962 28.40872229 0.13616962 30.64086914 1.25224304 C31.12595252 3.04764313 31.52837163 4.86563698 31.89086914 6.68974304 C34.1141997 16.03884806 38.4737144 23.91346771 46.64086914 29.25224304 C54.75592676 33.96079327 62.53696197 35.14400244 71.70336914 33.18974304 C81.00386179 30.53928172 87.74119655 25.62910263 92.64086914 17.25224304 C95.08776693 12.13961921 96.29484238 6.73249486 97.64086914 1.25224304 C99.63471693 -0.74160475 103.59391926 0.0883035 106.32446289 0.08427429 C107.09516617 0.08094589 107.86586945 0.07761749 108.65992737 0.07418823 C110.29329835 0.06911594 111.92667974 0.06678 113.56005859 0.06694031 C116.06438213 0.06475525 118.56826435 0.04660709 121.07250977 0.02763367 C122.65649263 0.02469957 124.24047759 0.02271488 125.82446289 0.02177429 C126.57658554 0.01458878 127.32870819 0.00740326 128.10362244 0 C133.41204635 0.02342025 133.41204635 0.02342025 135.64086914 2.25224304 C136.20275574 9.21963687 136.20275574 9.21963687 134.46118164 12.42021179 C132.13707503 14.75928046 130.41430841 15.05801144 127.20336914 15.68974304 C123.34946363 16.61630949 121.91758359 16.98211703 119.01586914 19.81474304 C116.26758796 24.68669605 115.97836378 28.67687328 116.64086914 34.25224304 C118.56380432 37.47053408 118.56380432 37.47053408 120.64086914 40.25224304 C121.11352539 43.02568054 121.11352539 43.02568054 120.64086914 46.25224304 C118.84060199 48.68216029 117.22135766 50.55832683 115.07836914 52.62724304 C114.56467773 53.17251648 114.05098633 53.71778992 113.52172852 54.27958679 C110.56192351 57.21365436 109.1843551 58.18266771 104.91821289 58.72880554 C101.64086914 58.25224304 101.64086914 58.25224304 98.76586914 56.25224304 C94.61552974 53.59602583 91.44518603 53.41708401 86.64086914 54.25224304 C82.48164582 56.17780939 81.00382867 57.55224966 78.89086914 61.62724304 C78.09835929 63.92552161 77.3434628 66.23740155 76.64086914 68.56474304 C75.64086914 71.25224304 75.64086914 71.25224304 72.64086914 73.25224304 C69.7846384 73.47417015 67.05792223 73.57672689 64.20336914 73.56474304 C63.43959961 73.58085632 62.67583008 73.5969696 61.88891602 73.61357117 C58.5170122 73.61650581 56.21186426 73.53999571 53.16821289 72.00614929 C51.34549593 69.91305488 51.01369901 68.60822187 50.64086914 65.87724304 C49.86783976 61.70695296 48.7553849 59.2751554 45.64086914 56.25224304 C41.40232203 53.71803803 37.46477307 53.66752741 32.64086914 54.25224304 C30.22217336 55.41120144 28.51764818 56.375464 26.64086914 58.25224304 C23.41694886 58.67067522 20.82005996 58.95758828 17.94213867 57.23612976 C16.25118821 55.80469429 14.7290085 54.29577996 13.20336914 52.68974304 C12.66260742 52.17605164 12.1218457 51.66236023 11.56469727 51.13310242 C8.61603971 48.13225623 7.70196199 46.7818962 7.20336914 42.45927429 C7.6713581 39.0287481 8.04119127 38.33198534 10.64086914 36.25224304 C12.43571455 30.8677068 12.47394467 26.05168618 10.07836914 20.87724304 C6.4154827 16.9325961 2.35496102 15.8020461 -2.67163086 14.18974304 C-5.35913086 13.25224304 -5.35913086 13.25224304 -7.35913086 11.25224304 C-7.62475586 9.15849304 -7.62475586 9.15849304 -7.60913086 6.75224304 C-7.61428711 5.95818054 -7.61944336 5.16411804 -7.62475586 4.34599304 C-7.0331186 -0.31750064 -3.98621329 0.01819332 0 0 Z " fill="#D70000" transform="translate(12.359130859375,75.74775695800781)"/>
<path d="M0 0 C0.62648437 0.34933594 1.25296875 0.69867188 1.8984375 1.05859375 C8.85463378 5.44798398 13.25997219 12.75177552 15.52734375 20.55859375 C17.25860746 29.5010716 16.3706207 37.96369741 12 46 C6.5490347 53.63135142 -0.48948161 60.26462813 -10 62 C-21.33849346 62.81370365 -30.41384176 62.09316142 -39.375 54.5625 C-40.6009372 53.39318239 -41.8117489 52.20759472 -43 51 C-44.11375 49.88625 -44.11375 49.88625 -45.25 48.75 C-50.33558963 40.75835915 -52.20422662 32.3880524 -51 23 C-48.47306122 12.3811786 -43.39981419 5.06797412 -34.24609375 -0.7734375 C-23.24549571 -6.7807206 -10.80436528 -6.15306517 0 0 Z M-23 13 C-23 16.3 -23 19.6 -23 23 C-25.4440625 22.9690625 -25.4440625 22.9690625 -27.9375 22.9375 C-29.62499341 22.91613932 -31.31391034 22.92794489 -33 23 C-34.25949049 24.03406673 -34.25949049 24.03406673 -34.09765625 26.28515625 C-34.08605469 27.20167969 -34.07445313 28.11820313 -34.0625 29.0625 C-34.041875 30.691875 -34.02125 32.32125 -34 34 C-30.7 34.33 -27.4 34.66 -24 35 C-23.67 38.3 -23.34 41.6 -23 45 C-19.37 45 -15.74 45 -12 45 C-12 41.37 -12 37.74 -12 34 C-8.37 34 -4.74 34 -1 34 C-0.979375 32.370625 -0.95875 30.74125 -0.9375 29.0625 C-0.92589844 28.14597656 -0.91429687 27.22945312 -0.90234375 26.28515625 C-0.74050951 24.03406673 -0.74050951 24.03406673 -2 23 C-5.33618231 22.85742811 -8.65975606 22.95771843 -12 23 C-12 19.7 -12 16.4 -12 13 C-15.63 13 -19.26 13 -23 13 Z " fill="#D60000" transform="translate(94,9)"/>
<path d="M0 0 C0.95446518 -0.00315216 1.90893036 -0.00630432 2.89231873 -0.009552 C3.93082474 -0.00752777 4.96933075 -0.00550354 6.03930664 -0.00341797 C7.62818443 -0.00485306 7.62818443 -0.00485306 9.24916077 -0.00631714 C11.4945583 -0.00699917 13.73995779 -0.00514331 15.98535156 -0.00097656 C19.43111589 0.00436608 22.87674955 -0.00091809 26.32250977 -0.00732422 C28.49894235 -0.00666334 30.67537485 -0.00538197 32.85180664 -0.00341797 C33.88828842 -0.0054422 34.9247702 -0.00746643 35.99266052 -0.009552 C36.95027786 -0.00639984 37.9078952 -0.00324768 38.89453125 0 C39.73978867 0.00079559 40.58504608 0.00159119 41.45591736 0.00241089 C43.51196289 0.12939453 43.51196289 0.12939453 45.51196289 1.12939453 C46.23698349 7.79958409 44.15818235 12.56362881 40.51196289 18.12939453 C35.89166339 23.37524527 30.49123454 26.6600178 23.53149414 27.48095703 C14.66905056 27.87576694 8.05982969 26.24614385 1.41040039 20.22705078 C-3.21056263 15.27330236 -5.33834025 11.17323062 -5.67553711 4.31689453 C-5.393661 -0.47499925 -4.38197758 0.00412839 0 0 Z " fill="#D80000" transform="translate(56.488037109375,75.87060546875)"/>
<path d="M0 0 C1.175625 0.0825 2.35125 0.165 3.5625 0.25 C5.71012184 3.47143276 6.123568 4.5095467 5.5625 8.25 C3.875 10.125 3.875 10.125 1.5625 11.25 C-2.05553079 10.97168994 -5.09901069 9.60434541 -8.4375 8.25 C-8.43226318 8.94150146 -8.42702637 9.63300293 -8.42163086 10.34545898 C-8.400925 13.45946352 -8.38786037 16.57345361 -8.375 19.6875 C-8.36662109 20.77611328 -8.35824219 21.86472656 -8.34960938 22.98632812 C-8.34638672 24.02080078 -8.34316406 25.05527344 -8.33984375 26.12109375 C-8.33460693 27.07943115 -8.32937012 28.03776855 -8.32397461 29.02514648 C-8.4375 31.25 -8.4375 31.25 -9.4375 32.25 C-11.43708364 32.29080783 -13.43795254 32.29254356 -15.4375 32.25 C-15.46215746 28.1382744 -15.48033959 24.02657722 -15.49243164 19.91479492 C-15.4974708 18.51504772 -15.50430216 17.1153058 -15.51293945 15.71557617 C-15.5250232 13.70754223 -15.53019807 11.69947043 -15.53515625 9.69140625 C-15.54039307 8.48170166 -15.54562988 7.27199707 -15.55102539 6.02563477 C-15.4375 3.25 -15.4375 3.25 -14.4375 2.25 C-11.85852306 1.92762788 -9.27818179 1.73732696 -6.6875 1.53125 C-3.58552459 1.14350307 -3.51107431 0.25535086 0 0 Z " fill="#D80000" transform="translate(133.4375,42.75)"/>
<path d="M0 0 C3 0.1875 3 0.1875 5 1.1875 C7.29924497 1.45774708 9.59801487 1.63247841 11.90625 1.80859375 C14 2.1875 14 2.1875 16 4.1875 C16.24291992 6.87719727 16.24291992 6.87719727 16.23046875 10.25390625 C16.22853516 11.46111328 16.22660156 12.66832031 16.22460938 13.91210938 C16.20624023 15.81186523 16.20624023 15.81186523 16.1875 17.75 C16.18685547 19.02037109 16.18621094 20.29074219 16.18554688 21.59960938 C16.14010053 31.04739947 16.14010053 31.04739947 15 32.1875 C13.02 32.1875 11.04 32.1875 9 32.1875 C9 24.2675 9 16.3475 9 8.1875 C5.535 9.6725 5.535 9.6725 2 11.1875 C-1.46925048 10.95621663 -2.5297292 10.6577708 -5 8.1875 C-5.25 5.1875 -5.25 5.1875 -5 2.1875 C-3 0.1875 -3 0.1875 0 0 Z " fill="#D70000" transform="translate(19,42.8125)"/>
<path d="M0 0 C3.125 0.3125 3.125 0.3125 5.0625 2 C6.40733625 4.92699654 6.15615662 6.29834989 5.125 9.3125 C3.125 11.3125 3.125 11.3125 0.25 11.5625 C-2.78628059 11.31959755 -4.26481986 10.73623462 -6.875 9.3125 C-6.86339844 9.95058594 -6.85179687 10.58867188 -6.83984375 11.24609375 C-6.83082031 12.07238281 -6.82179687 12.89867188 -6.8125 13.75 C-6.80089844 14.57371094 -6.78929687 15.39742187 -6.77734375 16.24609375 C-6.875 18.3125 -6.875 18.3125 -7.875 19.3125 C-9.87458364 19.35330783 -11.87545254 19.35504356 -13.875 19.3125 C-13.95576963 16.85351345 -14.01537143 14.39716258 -14.0625 11.9375 C-14.08763672 11.23882812 -14.11277344 10.54015625 -14.13867188 9.8203125 C-14.16796875 7.7890625 -14.16796875 7.7890625 -13.875 4.3125 C-10.42441314 2.01210876 -7.93404498 1.8386725 -3.875 1.3125 C-2.875 0.3125 -2.875 0.3125 0 0 Z " fill="#D60000" transform="translate(141.875,55.6875)"/>
<path d="M0 0 C2.4265853 0.1980886 4.62471968 0.52316136 7 1 C7.80050781 1.14824219 8.60101563 1.29648437 9.42578125 1.44921875 C14.13799727 2.38865575 14.13799727 2.38865575 16 3 C17.43316898 5.86633795 17.13200361 8.37235501 17.125 11.5625 C17.12886719 13.32787109 17.12886719 13.32787109 17.1328125 15.12890625 C17 18 17 18 16 19 C14.00041636 19.04080783 11.99954746 19.04254356 10 19 C10 15.7 10 12.4 10 9 C8.02 9.99 8.02 9.99 6 11 C2.83415221 11.32304569 0.84306084 11.4895192 -1.9375 9.875 C-3 8 -3 8 -2.8125 4.9375 C-2 2 -2 2 0 0 Z " fill="#D60000" transform="translate(8,56)"/>
</svg>
