<?xml version="1.0" encoding="UTF-8"?>
<svg version="1.1" xmlns="http://www.w3.org/2000/svg" width="179" height="181">
<!-- <path d="M0 0 C4.79692124 2.49972588 6.98553665 6.00780312 9.60546875 10.61328125 C10.04632813 11.34160156 10.4871875 12.06992187 10.94140625 12.8203125 C14.10546875 18.13633055 14.10546875 18.13633055 14.10546875 20.48828125 C16.08546875 19.49828125 18.06546875 18.50828125 20.10546875 17.48828125 C20.10546875 24.41828125 20.10546875 31.34828125 20.10546875 38.48828125 C15.44776712 36.93571404 11.91626399 35.45373778 7.73046875 33.05078125 C6.67085938 32.45394531 5.61125 31.85710938 4.51953125 31.2421875 C3.72289063 30.66339844 2.92625 30.08460937 2.10546875 29.48828125 C2.10546875 28.49828125 2.10546875 27.50828125 2.10546875 26.48828125 C3.42546875 26.15828125 4.74546875 25.82828125 6.10546875 25.48828125 C4.81773723 23.19432232 3.52550103 20.90311341 2.23046875 18.61328125 C1.68326172 17.63681641 1.68326172 17.63681641 1.125 16.640625 C-0.38113661 13.98434771 -1.72472126 11.65809124 -3.89453125 9.48828125 C-8.48031627 8.89870028 -8.48031627 8.89870028 -12.4621582 10.75708008 C-13.98187899 12.59385187 -15.18060423 14.43695276 -16.375 16.5 C-16.81650391 17.25732422 -17.25800781 18.01464844 -17.71289062 18.79492188 C-18.16470703 19.58060547 -18.61652344 20.36628906 -19.08203125 21.17578125 C-19.54544922 21.97306641 -20.00886719 22.77035156 -20.48632812 23.59179688 C-21.62656103 25.55487826 -22.76110341 27.52126296 -23.89453125 29.48828125 C-18.94453125 29.81828125 -13.99453125 30.14828125 -8.89453125 30.48828125 C-8.89453125 50.61828125 -8.89453125 70.74828125 -8.89453125 91.48828125 C-29.02453125 91.48828125 -49.15453125 91.48828125 -69.89453125 91.48828125 C-73.40621349 69.24762704 -73.40621349 69.24762704 -74.58203125 59.73828125 C-74.77635742 58.2378125 -74.77635742 58.2378125 -74.97460938 56.70703125 C-75.61425486 51.58986741 -76.04577417 46.64494479 -75.89453125 41.48828125 C-76.55453125 41.15828125 -77.21453125 40.82828125 -77.89453125 40.48828125 C-77.89453125 38.17828125 -77.89453125 35.86828125 -77.89453125 33.48828125 C-75.25453125 33.48828125 -72.61453125 33.48828125 -69.89453125 33.48828125 C-69.89453125 32.49828125 -69.89453125 31.50828125 -69.89453125 30.48828125 C-68.24453125 30.15828125 -66.59453125 29.82828125 -64.89453125 29.48828125 C-64.95640625 28.39515625 -65.01828125 27.30203125 -65.08203125 26.17578125 C-64.89453125 22.48828125 -64.89453125 22.48828125 -63.58203125 20.61328125 C-60.17479584 18.34179098 -56.99815333 18.29781175 -53.01953125 18.23828125 C-51.47652344 18.19960938 -51.47652344 18.19960938 -49.90234375 18.16015625 C-46.4337197 18.5385516 -44.60638623 19.30413859 -41.89453125 21.48828125 C-40.95222817 24.2110686 -41.03801983 26.57068012 -40.89453125 29.48828125 C-36.60453125 29.48828125 -32.31453125 29.48828125 -27.89453125 29.48828125 C-29.21453125 28.49828125 -30.53453125 27.50828125 -31.89453125 26.48828125 C-31.01657865 20.99401661 -28.57790153 17.11222167 -25.70703125 12.42578125 C-25.23716797 11.62333984 -24.76730469 10.82089844 -24.28320312 9.99414062 C-18.86152189 1.0812813 -10.7039497 -4.85672938 0 0 Z M-59.89453125 24.48828125 C-60.22453125 26.46828125 -60.55453125 28.44828125 -60.89453125 30.48828125 C-55.61453125 30.48828125 -50.33453125 30.48828125 -44.89453125 30.48828125 C-45.55453125 28.50828125 -46.21453125 26.52828125 -46.89453125 24.48828125 C-51.18453125 24.48828125 -55.47453125 24.48828125 -59.89453125 24.48828125 Z " fill="#FEF9F9" transform="translate(100.89453125,4.51171875)"/> -->
<path d="M0 0 C14.85 0.33 29.7 0.66 45 1 C44.195625 8.239375 43.39125 15.47875 42.5625 22.9375 C42.18460327 26.36950806 42.18460327 26.36950806 41.79907227 29.87084961 C41.5968638 31.67305328 41.39433101 33.4752206 41.19140625 35.27734375 C41.08856323 36.22226685 40.98572021 37.16718994 40.87976074 38.14074707 C40.77836792 39.03394653 40.6769751 39.927146 40.57250977 40.84741211 C40.44260399 42.0165641 40.44260399 42.0165641 40.31007385 43.20933533 C40 45 40 45 39 46 C36.47905924 46.08847743 33.98569107 46.11527301 31.46484375 46.09765625 C30.33496788 46.09553383 30.33496788 46.09553383 29.18226624 46.09336853 C26.7673044 46.08775376 24.35243399 46.07519883 21.9375 46.0625 C20.30403779 46.0574869 18.67057414 46.05292366 17.03710938 46.04882812 C13.02470415 46.03777954 9.01236759 46.02050506 5 46 C4.28217764 40.57471387 3.57029249 35.14869305 2.86376953 29.72192383 C2.62286625 27.87796281 2.3803747 26.03420854 2.13623047 24.19067383 C1.78450035 21.53259909 1.43859002 18.87382006 1.09375 16.21484375 C0.9843811 15.39789536 0.87501221 14.58094696 0.7623291 13.73924255 C0.66222534 12.95896194 0.56212158 12.17868134 0.45898438 11.37475586 C0.37015991 10.69746933 0.28133545 10.0201828 0.18981934 9.32237244 C-0.0633773 6.22460115 0 3.10810159 0 0 Z " fill="#DA0707" transform="translate(25,46)"/>
<path d="M0 0 C1.1539325 -0.00143509 1.1539325 -0.00143509 2.33117676 -0.00289917 C3.95857831 -0.00358004 5.58598257 -0.00173223 7.21337891 0.00244141 C9.70872073 0.007791 12.20388255 0.00249331 14.69921875 -0.00390625 C16.27864623 -0.00324545 17.8580736 -0.00196425 19.4375 0 C20.56097839 -0.00303635 20.56097839 -0.00303635 21.70715332 -0.00613403 C26.98882757 0.01785128 26.98882757 0.01785128 29.21875 1.1328125 C29.26813149 5.51105167 29.3044604 9.88914396 29.32861328 14.26757812 C29.33868043 15.7575157 29.35233518 17.24743347 29.36962891 18.73730469 C29.39384653 20.87700278 29.40522564 23.01644003 29.4140625 25.15625 C29.42977295 27.08863525 29.42977295 27.08863525 29.44580078 29.06005859 C29.21875 32.1328125 29.21875 32.1328125 27.21875 34.1328125 C23.53850395 34.40910725 19.91380443 34.218744 16.21875 34.1328125 C15.88875 29.1828125 15.55875 24.2328125 15.21875 19.1328125 C11.58875 19.1328125 7.95875 19.1328125 4.21875 19.1328125 C4.23035156 20.13183594 4.24195312 21.13085938 4.25390625 22.16015625 C4.26292969 23.45050781 4.27195312 24.74085937 4.28125 26.0703125 C4.29285156 27.35808594 4.30445312 28.64585938 4.31640625 29.97265625 C4.21875 33.1328125 4.21875 33.1328125 3.21875 34.1328125 C0.8203125 34.37109375 0.8203125 34.37109375 -2.15625 34.4453125 C-3.62191406 34.50138672 -3.62191406 34.50138672 -5.1171875 34.55859375 C-7.78125 34.1328125 -7.78125 34.1328125 -9.42724609 32.47949219 C-11.137434 29.51549541 -11.13975128 27.570417 -11.109375 24.16015625 C-11.10164063 22.44022461 -11.10164063 22.44022461 -11.09375 20.68554688 C-11.073125 19.49251953 -11.0525 18.29949219 -11.03125 17.0703125 C-11.02609375 15.87341797 -11.0209375 14.67652344 -11.015625 13.44335938 C-10.93597274 4.59698073 -10.93597274 4.59698073 -9.78125 1.1328125 C-6.68038331 -0.41762084 -3.40224234 -0.009195 0 0 Z " fill="#DB0000" transform="translate(119.78125,57.8671875)"/>
<path d="M0 0 C4.79692124 2.49972588 6.98553665 6.00780312 9.60546875 10.61328125 C10.04632813 11.34160156 10.4871875 12.06992187 10.94140625 12.8203125 C14.10546875 18.13633055 14.10546875 18.13633055 14.10546875 20.48828125 C16.08546875 19.49828125 18.06546875 18.50828125 20.10546875 17.48828125 C20.10546875 24.41828125 20.10546875 31.34828125 20.10546875 38.48828125 C15.44776712 36.93571404 11.91626399 35.45373778 7.73046875 33.05078125 C6.67085937 32.45394531 5.61125 31.85710938 4.51953125 31.2421875 C3.72289062 30.66339844 2.92625 30.08460937 2.10546875 29.48828125 C2.10546875 28.49828125 2.10546875 27.50828125 2.10546875 26.48828125 C3.42546875 26.15828125 4.74546875 25.82828125 6.10546875 25.48828125 C4.81773723 23.19432232 3.52550103 20.90311341 2.23046875 18.61328125 C1.86566406 17.96230469 1.50085938 17.31132812 1.125 16.640625 C-0.38113661 13.98434771 -1.72472126 11.65809124 -3.89453125 9.48828125 C-8.47026005 8.89830555 -8.47026005 8.89830555 -12.44848633 10.7434082 C-14.03033045 12.65214363 -15.3137025 14.59537708 -16.59375 16.71875 C-17.08037109 17.52119141 -17.56699219 18.32363281 -18.06835938 19.15039062 C-18.56787109 19.98376953 -19.06738281 20.81714844 -19.58203125 21.67578125 C-20.09314453 22.52076172 -20.60425781 23.36574219 -21.13085938 24.23632812 C-22.38928393 26.31802108 -23.64367291 28.40203617 -24.89453125 30.48828125 C-30.63941654 28.04364921 -30.63941654 28.04364921 -31.73071289 25.66796875 C-32.07200421 21.12691223 -28.62568355 17.22648057 -26.33203125 13.48828125 C-25.80544922 12.5859375 -25.27886719 11.68359375 -24.73632812 10.75390625 C-19.18577843 1.56866367 -11.22782527 -5.09442873 0 0 Z " fill="#D90000" transform="translate(100.89453125,4.51171875)"/>
<path d="M0 0 C0 6.93 0 13.86 0 21 C-1.98 20.67 -3.96 20.34 -6 20 C-7.34695793 22.22187927 -8.67741796 24.45117463 -10 26.6875 C-10.3815625 27.31333984 -10.763125 27.93917969 -11.15625 28.58398438 C-13.24256058 32.14188903 -14.81461864 34.84689963 -14 39 C-12.46130048 40.93742544 -11.53647423 41.87798949 -9.09887695 42.43237305 C-8.05413208 42.47164917 -8.05413208 42.47164917 -6.98828125 42.51171875 C-6.23095703 42.54716797 -5.47363281 42.58261719 -4.69335938 42.61914062 C-3.90767578 42.64169922 -3.12199219 42.66425781 -2.3125 42.6875 C-1.51521484 42.72166016 -0.71792969 42.75582031 0.10351562 42.79101562 C2.06851904 42.87338104 4.03423696 42.93837067 6 43 C6.02689216 44.47906892 6.04634621 45.95827483 6.0625 47.4375 C6.07410156 48.26121094 6.08570312 49.08492187 6.09765625 49.93359375 C6 52 6 52 5 53 C-4.52965512 53.61788288 -12.17464667 53.96751274 -19.8125 47.6875 C-22.931326 43.85579949 -23.74428047 40.63021198 -24.5 35.8125 C-23.63701179 29.23221492 -19.87054613 23.81204052 -16.23828125 18.3515625 C-15.82964844 17.57554688 -15.42101563 16.79953125 -15 16 C-15.33 15.01 -15.66 14.02 -16 13 C-16.66 12.67 -17.32 12.34 -18 12 C-18 11.01 -18 10.02 -18 9 C-15.37785672 7.49480613 -12.75255792 5.99568681 -10.125 4.5 C-9.37863281 4.07074219 -8.63226563 3.64148438 -7.86328125 3.19921875 C-7.14785156 2.79316406 -6.43242187 2.38710937 -5.6953125 1.96875 C-5.03547363 1.59169922 -4.37563477 1.21464844 -3.69580078 0.82617188 C-2 0 -2 0 0 0 Z " fill="#DA0000" transform="translate(27,86)"/>
<path d="M0 0 C6.6 0 13.2 0 20 0 C20.59297223 5.82028965 21.18269087 11.64071165 21.76391602 17.4621582 C21.96281208 19.44412572 22.16365549 21.4258988 22.36645508 23.4074707 C22.65693166 26.24902766 22.9404915 29.09120097 23.22265625 31.93359375 C23.31531265 32.82525742 23.40796906 33.71692108 23.50343323 34.63560486 C23.71026534 36.7534415 23.86108025 38.87662701 24 41 C23 42 23 42 19.18359375 42.09765625 C17.60153318 42.09098089 16.01948841 42.07901875 14.4375 42.0625 C13.63119141 42.05798828 12.82488281 42.05347656 11.99414062 42.04882812 C9.99606244 42.03700518 7.99802217 42.01906914 6 42 C6.01571045 40.61494263 6.01571045 40.61494263 6.03173828 39.2019043 C6.0658319 35.77463282 6.09090446 32.34754167 6.10986328 28.92016602 C6.11991821 27.43706417 6.13356404 25.95398212 6.15087891 24.47094727 C6.17515006 22.33865469 6.18648799 20.20662431 6.1953125 18.07421875 C6.21102295 16.14968872 6.21102295 16.14968872 6.22705078 14.1862793 C6.2526056 10.84357256 6.2526056 10.84357256 4 8 C1.94074861 7.27617533 1.94074861 7.27617533 0 7 C0 4.69 0 2.38 0 0 Z " fill="#DB0000" transform="translate(144,50)"/>
<path d="M0 0 C5.28136503 6.92307968 8.88267086 12.49176117 8.41796875 21.484375 C7.55655341 26.66896828 5.04209416 29.19671908 1 32.3125 C-3.72667126 34.97125259 -7.33650606 35.11663494 -12.75 35.0625 C-13.92046875 35.05347656 -15.0909375 35.04445312 -16.296875 35.03515625 C-17.18890625 35.02355469 -18.0809375 35.01195312 -19 35 C-19 36.65 -19 38.3 -19 40 C-23.2002771 39.09476787 -26.57966461 37.09717906 -30.25 34.9375 C-31.22453125 34.37192383 -31.22453125 34.37192383 -32.21875 33.79492188 C-33.81505091 32.86765885 -35.40787529 31.93441544 -37 31 C-37 30.34 -37 29.68 -37 29 C-34.37785672 27.49480613 -31.75255792 25.99568681 -29.125 24.5 C-28.37863281 24.07074219 -27.63226563 23.64148438 -26.86328125 23.19921875 C-25.79013672 22.59013672 -25.79013672 22.59013672 -24.6953125 21.96875 C-24.03547363 21.59169922 -23.37563477 21.21464844 -22.69580078 20.82617188 C-21 20 -21 20 -19 20 C-19 21.98 -19 23.96 -19 26 C-16.89551062 25.85890014 -14.7914123 25.71195825 -12.6875 25.5625 C-10.92986328 25.44068359 -10.92986328 25.44068359 -9.13671875 25.31640625 C-5.97409042 25.1132629 -5.97409042 25.1132629 -3 24 C-1.3453632 21.68350847 -0.9395059 20.49212771 -1.2890625 17.6484375 C-2.25881 14.03586164 -4.08654063 11.24664969 -6.0390625 8.0859375 C-7 6 -7 6 -6 3 C-2.9375 1.3125 -2.9375 1.3125 0 0 Z " fill="#DA0000" transform="translate(159,101)"/>
<path d="M0 0 C0 7.26 0 14.52 0 22 C-23.27906977 33 -23.27906977 33 -28 33 C-28 25.74 -28 18.48 -28 11 C-24.17374489 9.43182093 -20.34708607 7.86469355 -16.51928711 6.30029297 C-15.21629603 5.76739156 -13.91356074 5.23386427 -12.61108398 4.69970703 C-10.74269336 3.9335887 -8.87331481 3.16988108 -7.00390625 2.40625 C-5.87799072 1.94541016 -4.7520752 1.48457031 -3.59204102 1.00976562 C-1 0 -1 0 0 0 Z " fill="#D90000" transform="translate(103,146)"/>
<path d="M0 0 C4.12541732 1.64479374 8.25034965 3.29078502 12.375 4.9375 C13.550625 5.40607422 14.72625 5.87464844 15.9375 6.35742188 C17.61972656 7.0293457 17.61972656 7.0293457 19.3359375 7.71484375 C20.37282715 8.12855225 21.4097168 8.54226074 22.47802734 8.96850586 C25 10 25 10 27 11 C27 18.26 27 25.52 27 33 C16.875 29.625 16.875 29.625 13.18359375 28.17578125 C12.12096313 27.76066284 12.12096313 27.76066284 11.03686523 27.3371582 C10.17907471 26.999021 9.32128418 26.66088379 8.4375 26.3125 C5.653125 25.219375 2.86875 24.12625 0 23 C0 15.41 0 7.82 0 0 Z " fill="#DA0000" transform="translate(47,146)"/>
<path d="M0 0 C0 7.26 0 14.52 0 22 C-16.26849894 29.23044397 -16.26849894 29.23044397 -21.19921875 28.57421875 C-23.625 27.4375 -23.625 27.4375 -27 25 C-27 20.05 -27 15.1 -27 10 C-23.06513658 8.32686141 -19.12737562 6.6612581 -15.1875 5 C-14.06794922 4.52304688 -12.94839844 4.04609375 -11.79492188 3.5546875 C-10.72177734 3.10351562 -9.64863281 2.65234375 -8.54296875 2.1875 C-7.0583313 1.55908203 -7.0583313 1.55908203 -5.54370117 0.91796875 C-3 0 -3 0 0 0 Z " fill="#DA0000" transform="translate(115,113)"/>
<path d="M0 0 C4.45101903 0.7418365 7.38976747 1.392197 11.3984375 3.06640625 C12.37167969 3.46923828 13.34492187 3.87207031 14.34765625 4.28710938 C15.34667969 4.70798828 16.34570312 5.12886719 17.375 5.5625 C18.39722656 5.98724609 19.41945313 6.41199219 20.47265625 6.84960938 C22.98412435 7.89409845 25.49238612 8.94629128 28 10 C28 14.62 28 19.24 28 24 C23 23 23 23 20.625 21.875 C16.61540917 20.53846972 12.76965091 21.11517454 9 23 C6.03 22.67 3.06 22.34 0 22 C0 14.74 0 7.48 0 0 Z " fill="#DB0000" transform="translate(59,113)"/>
<path d="M0 0 C0 0.66 0 1.32 0 2 C-3.8645952 3.71207744 -7.74305642 5.39017482 -11.625 7.0625 C-13.26662109 7.79049805 -13.26662109 7.79049805 -14.94140625 8.53320312 C-16.53662109 9.21479492 -16.53662109 9.21479492 -18.1640625 9.91015625 C-19.62513428 10.54642944 -19.62513428 10.54642944 -21.11572266 11.19555664 C-26.97400662 12.82946943 -31.74598115 10.41684867 -37 8 C-37 7.34 -37 6.68 -37 6 C-33.30272878 4.28747125 -29.59072082 2.60957437 -25.875 0.9375 C-24.82828125 0.45216797 -23.7815625 -0.03316406 -22.703125 -0.53320312 C-21.68476562 -0.98759766 -20.66640625 -1.44199219 -19.6171875 -1.91015625 C-18.68503418 -2.33433838 -17.75288086 -2.75852051 -16.79248047 -3.19555664 C-10.86255118 -4.90382006 -5.47943243 -2.17287838 0 0 Z " fill="#D90000" transform="translate(113,110)"/>
<path d="M0 0 C0 0.66 0 1.32 0 2 C-3.88673978 3.70902169 -7.78562819 5.38834822 -11.6875 7.0625 C-12.79029297 7.54783203 -13.89308594 8.03316406 -15.02929688 8.53320312 C-16.09599609 8.98759766 -17.16269531 9.44199219 -18.26171875 9.91015625 C-19.24100342 10.33433838 -20.22028809 10.75852051 -21.22924805 11.19555664 C-26.79865945 12.81254585 -31.82306347 10.0181278 -37 8 C-37 7.34 -37 6.68 -37 6 C-33.32499747 4.28428113 -29.6333887 2.6076929 -25.9375 0.9375 C-24.89916016 0.45216797 -23.86082031 -0.03316406 -22.79101562 -0.53320312 C-13.60631512 -4.64445002 -8.98583747 -4.21784208 0 0 Z " fill="#DA0000" transform="translate(100,144)"/>
<path d="M0 0 C0.99 0.33 1.98 0.66 3 1 C3 1.66 3 2.32 3 3 C-0.67500253 4.71571887 -4.3666113 6.3923071 -8.0625 8.0625 C-9.10083984 8.54783203 -10.13917969 9.03316406 -11.20898438 9.53320312 C-18.21836697 12.67073629 -21.91195178 13.73191059 -29.21484375 11.24609375 C-30.80989583 10.49739583 -32.40494792 9.74869792 -34 9 C-34 8.34 -34 7.68 -34 7 C-30.04036807 5.22344364 -26.05537007 3.51287724 -22.0625 1.8125 C-20.94552734 1.31041016 -19.82855469 0.80832031 -18.67773438 0.29101562 C-11.35841969 -2.7783744 -7.14030785 -3.6567119 0 0 Z " fill="#DA0000" transform="translate(95,103)"/>
<path d="M0 0 C0.66 0.33 1.32 0.66 2 1 C2 1.66 2 2.32 2 3 C-1.69727122 4.71252875 -5.40927918 6.39042563 -9.125 8.0625 C-10.69507813 8.79049805 -10.69507813 8.79049805 -12.296875 9.53320312 C-13.31523438 9.98759766 -14.33359375 10.44199219 -15.3828125 10.91015625 C-16.31496582 11.33433838 -17.24711914 11.75852051 -18.20751953 12.19555664 C-23.99302807 13.86221608 -28.80768923 11.38846296 -34 9 C-34 8.34 -34 7.68 -34 7 C-30.04036807 5.22344364 -26.05537007 3.51287724 -22.0625 1.8125 C-20.94552734 1.31041016 -19.82855469 0.80832031 -18.67773438 0.29101562 C-11.47466097 -2.72962806 -7.02389406 -3.80314241 0 0 Z " fill="#DA0000" transform="translate(83,137)"/>
<path d="M0 0 C24.255 0.495 24.255 0.495 49 1 C49 2.65 49 4.3 49 6 C32.83 6.33 16.66 6.66 0 7 C0 4.69 0 2.38 0 0 Z " fill="#DC0E0E" transform="translate(23,38)"/>
<path d="M0 0 C1.5631897 0.00785522 1.5631897 0.00785522 3.15795898 0.01586914 C4.28266602 0.0190918 5.40737305 0.02231445 6.56616211 0.02563477 C7.75016602 0.03401367 8.93416992 0.04239258 10.15405273 0.05102539 C11.34192383 0.05553711 12.52979492 0.06004883 13.75366211 0.06469727 C16.69967499 0.07652864 19.64558954 0.09301252 22.59155273 0.11352539 C22.59155273 3.41352539 22.59155273 6.71352539 22.59155273 10.11352539 C14.01155273 10.11352539 5.43155273 10.11352539 -3.40844727 10.11352539 C-3.40844727 0.16066173 -3.40844727 0.16066173 0 0 Z " fill="#DA0000" transform="translate(144.408447265625,38.886474609375)"/>
<path d="M0 0 C1.54300781 -0.03867187 1.54300781 -0.03867187 3.1171875 -0.078125 C6.58581155 0.30027035 8.41314502 1.06585734 11.125 3.25 C12.06730308 5.97278735 11.98151142 8.33239887 12.125 11.25 C10.805 11.58 9.485 11.91 8.125 12.25 C7.465 10.6 6.805 8.95 6.125 7.25 C1.835 6.92 -2.455 6.59 -6.875 6.25 C-7.205 8.23 -7.535 10.21 -7.875 12.25 C-9.195 11.92 -10.515 11.59 -11.875 11.25 C-12.24158354 4.77369077 -12.24158354 4.77369077 -10.5625 2.375 C-7.15526459 0.10350973 -3.97862208 0.0595305 0 0 Z " fill="#D80000" transform="translate(47.875,22.75)"/>
<path d="M0 0 C2.97 0 5.94 0 9 0 C9 4.95 9 9.9 9 15 C6.03 15 3.06 15 0 15 C0 10.05 0 5.1 0 0 Z " fill="#DA0000" transform="translate(125,77)"/>
<path d="M0 0 C0.66 0 1.32 0 2 0 C2 0.66 2 1.32 2 2 C1.34 2 0.68 2 0 2 C0 1.34 0 0.68 0 0 Z " fill="#E20000" transform="translate(116,96)"/>
</svg>
